<!-- Generator: Adobe Illustrator 17.0.0, SVG Export Plug-In  -->
<svg version="1.1"
	 xmlns="http://www.w3.org/2000/svg" xmlns:xlink="http://www.w3.org/1999/xlink" xmlns:a="http://ns.adobe.com/AdobeSVGViewerExtensions/3.0/"
	 x="0px" y="0px" width="82.545px" height="82.545px" viewBox="0 0 82.545 82.545" enable-background="new 0 0 82.545 82.545"
	 xml:space="preserve">
<defs>
</defs>
<g>
	<defs>
		<rect id="SVGID_1_" width="82.545" height="82.545"/>
	</defs>
	<clipPath id="SVGID_2_">
		<use xlink:href="#SVGID_1_"  overflow="visible"/>
	</clipPath>
	<path clip-path="url(#SVGID_2_)" d="M41.272,0C18.48,0,0,18.48,0,41.272s18.48,41.273,41.272,41.273s41.273-18.481,41.273-41.273
		S64.064,0,41.272,0 M13.413,20.19c3.093-3.07,8.099-3.07,11.191,0c3.093-3.07,8.101-3.07,11.192,0c3.068,3.07,3.068,8.055,0,11.123
		L24.604,42.436L13.413,31.313C10.345,28.245,10.345,23.26,13.413,20.19 M63.181,51.373c-0.149,0.884-0.352,1.751-0.606,2.599
		c-1.333,4.492-4.048,8.381-7.651,11.175c-3.778,2.952-8.509,4.699-13.652,4.699s-9.874-1.747-13.652-4.699
		c-3.603-2.794-6.317-6.683-7.651-11.175c-0.254-0.848-0.457-1.715-0.606-2.599c-0.332-1.954,1.151-3.751,3.135-3.751h37.548
		C62.031,47.622,63.513,49.419,63.181,51.373 M69.131,31.313L57.94,42.436L46.749,31.313c-3.069-3.068-3.069-8.053,0-11.123
		c3.092-3.07,8.099-3.07,11.191,0c3.092-3.07,8.1-3.07,11.191,0C72.199,23.26,72.199,28.245,69.131,31.313"/>
</g>
</svg>
