<svg version="1.1"
	 xmlns="http://www.w3.org/2000/svg" xmlns:xlink="http://www.w3.org/1999/xlink" xmlns:a="http://ns.adobe.com/AdobeSVGViewerExtensions/3.0/"
	 x="0px" y="0px" viewBox="0 0 260 260" enable-background="new 0 0 260 260" xml:space="preserve">
<defs>
</defs>
<g>
	<defs>
		<path id="SVGID_1_" d="M79.92,77.296l2.338-2.787h13.698L71.071,49.623C87.577,37.502,107.949,30.337,130,30.337
			c55.044,0,99.666,44.621,99.666,99.663c0,22.049-7.165,42.423-19.286,58.932l-14.649-14.648
			c-7.159,7.307-17.72,11.954-30.199,12.702l23.397,23.396c-16.506,12.121-36.88,19.286-58.929,19.286
			c-55.044,0-99.665-44.621-99.665-99.668c0-22.049,7.164-42.423,19.286-58.927l17.662,17.661
			C71.051,86.473,74.808,83.39,79.92,77.296 M130,0C58.203,0,0,58.205,0,130c0,71.8,58.203,130,130,130s130-58.2,130-130
			C260,58.205,201.797,0,130,0z"/>
	</defs>
	<clipPath id="SVGID_2_">
		<use xlink:href="#SVGID_1_"  overflow="visible"/>
	</clipPath>

		<linearGradient id="SVGID_3_" gradientUnits="userSpaceOnUse" x1="0" y1="260" x2="1" y2="260" gradientTransform="matrix(0 260 260 0 -67470 0)">
		<stop  offset="0" style="stop-color:#C20B19"/>
		<stop  offset="1" style="stop-color:#AC1315"/>
	</linearGradient>
	<rect clip-path="url(#SVGID_2_)" fill="url(#SVGID_3_)" width="260" height="260"/>
</g>
<path d="M110.149,82.309H85.896c-9.943,11.854-16.077,14.034-23.844,17.85l6.269,15.126l13.622-6.404v50.549H68.321v18.122h54.498
	V159.43h-12.67V82.309z"/>
<path d="M183.918,126.046c5.988-2.858,11.443-9.535,11.443-18.53c0-15.124-11.443-26.84-32.566-26.84
	c-20.437,0-32.43,11.716-32.43,26.84c0,6.54,3.403,14.036,10.221,18.123c-8.994,4.497-14.717,15.124-14.717,23.981
	c0,16.758,13.491,29.704,36.108,29.704c21.941,0,35.971-12.946,35.971-29.704C197.948,140.355,193.182,130.543,183.918,126.046
	 M162.526,97.841c5.446,0,10.216,3.68,10.216,8.587c0,4.087-3.135,7.356-6.542,8.99c-4.497-0.133-13.488-1.498-13.488-8.99
	C152.712,101.929,157.207,97.841,162.526,97.841 M162.112,159.975c-6.813,0-12.67-4.769-12.67-11.174
	c0-5.039,3.816-9.809,7.901-12.123c6.269,0.272,17.304,2.587,17.304,12.123C174.51,156.297,168.79,159.975,162.112,159.975"/>
</svg>
