<!-- Generator: Adobe Illustrator 17.0.0, SVG Export Plug-In  -->
<svg version="1.1"
	 xmlns="http://www.w3.org/2000/svg" xmlns:xlink="http://www.w3.org/1999/xlink" xmlns:a="http://ns.adobe.com/AdobeSVGViewerExtensions/3.0/"
	 x="0px" y="0px" width="590.645px" height="586.125px" viewBox="0 0 590.645 586.125" enable-background="new 0 0 590.645 586.125"
	 xml:space="preserve">
<defs>
</defs>
<g>
	<defs>
		<rect id="SVGID_1_" width="590.645" height="586.125"/>
	</defs>
	<clipPath id="SVGID_2_">
		<use xlink:href="#SVGID_1_"  overflow="visible"/>
	</clipPath>
	<path clip-path="url(#SVGID_2_)" d="M31.48,430.589c-1.628,1.628-2.79,3.721-3.255,5.93L0.205,572.201
		c-1.512,8.138,5.58,15.23,13.835,13.719l136.845-27.904c2.325-0.465,4.302-1.511,5.929-3.139l10.348-10.348L41.828,420.242
		L31.48,430.589z"/>
	<path clip-path="url(#SVGID_2_)" d="M334.003,138.53c-2.325-2.325-6.046-2.325-8.371,0L87.752,374.665
		c-2.325,2.326-2.325,6.046,0,8.255l116.964,116.033c2.325,2.326,6.045,2.326,8.371,0l237.879-236.135
		c2.326-2.325,2.326-6.046,0-8.255L334.003,138.53z"/>
	<path clip-path="url(#SVGID_2_)" d="M581.998,91.443L498.519,8.546c-11.51-11.394-30.229-11.394-41.739,0l-80.805,80.223
		c-2.325,2.325-2.325,6.046,0,8.255l116.963,116.033c2.326,2.325,6.046,2.325,8.372,0l80.804-80.223
		C593.508,121.44,593.508,102.837,581.998,91.443"/>
</g>
</svg>
