<!-- Generator: Adobe Illustrator 17.0.0, SVG Export Plug-In  -->
<svg version="1.1"
	 xmlns="http://www.w3.org/2000/svg" xmlns:xlink="http://www.w3.org/1999/xlink" xmlns:a="http://ns.adobe.com/AdobeSVGViewerExtensions/3.0/"
	 x="0px" y="0px" width="158.74px" height="158.891px" viewBox="0 0 158.74 158.891" enable-background="new 0 0 158.74 158.891"
	 xml:space="preserve">
<defs>
</defs>
<g>
	<defs>
		<rect id="SVGID_1_" y="0.001" width="158.74" height="158.89"/>
	</defs>
	<clipPath id="SVGID_2_">
		<use xlink:href="#SVGID_1_"  overflow="visible"/>
	</clipPath>
	<path clip-path="url(#SVGID_2_)" d="M142.866,31.899h-25.398c2.381-6.35,2.381-12.699-3.175-20.636
		c-3.969-5.556-9.525-9.525-15.874-10.318C91.276,0.151,84.132,2.532,79.37,6.501c-4.762-4.763-11.905-7.144-19.049-6.35
		c-7.143,1.587-12.699,5.556-16.667,11.112c-4.763,7.937-4.763,14.286-2.382,20.636H15.874C7.143,31.899,0,39.042,0,47.773V62.06
		c0,0.793,0.794,1.587,1.587,1.587h68.259c0.793,0,1.587-0.794,1.587-1.587V31.899h-7.937c-4.762,0-7.937-3.175-7.937-7.937
		c0-4.762,3.175-7.937,7.937-7.937s7.937,3.175,7.937,7.937v7.937h15.874V62.06c0,0.793,0.794,1.587,1.587,1.587h68.259
		c0.793,0,1.587-0.794,1.587-1.587V47.773C158.74,39.042,151.597,31.899,142.866,31.899 M95.244,31.899h-7.937v-7.937
		c0-4.762,3.175-7.937,7.937-7.937c4.762,0,7.937,3.175,7.937,7.937C103.181,28.724,100.006,31.899,95.244,31.899"/>
	<path clip-path="url(#SVGID_2_)" d="M149.216,79.521H88.895c-0.794,0-1.588,0.794-1.588,1.587v76.196
		c0,0.793,0.794,1.587,1.588,1.587h46.034c8.731,0,15.874-7.143,15.874-15.874V81.108C150.803,80.315,150.01,79.521,149.216,79.521"
		/>
	<path clip-path="url(#SVGID_2_)" d="M69.846,79.521H9.525c-0.794,0-1.588,0.794-1.588,1.587v61.909
		c0,8.731,7.144,15.874,15.874,15.874h46.035c0.794,0,1.587-0.794,1.587-1.587V81.108C71.433,80.315,70.64,79.521,69.846,79.521"/>
</g>
</svg>
