<!-- Generator: Adobe Illustrator 17.0.0, SVG Export Plug-In  -->
<svg version="1.1"
	 xmlns="http://www.w3.org/2000/svg" xmlns:xlink="http://www.w3.org/1999/xlink" xmlns:a="http://ns.adobe.com/AdobeSVGViewerExtensions/3.0/"
	 x="0px" y="0px" width="126.189px" height="126.217px" viewBox="0 0 126.189 126.217" enable-background="new 0 0 126.189 126.217"
	 xml:space="preserve">
<defs>
</defs>
<g>
	<defs>
		<rect id="SVGID_1_" width="126.188" height="126.217"/>
	</defs>
	<clipPath id="SVGID_2_">
		<use xlink:href="#SVGID_1_"  overflow="visible"/>
	</clipPath>
	<path clip-path="url(#SVGID_2_)" d="M107.734,18.483C95.814,6.562,79.967,0,63.109,0C46.252,0,30.403,6.562,18.487,18.483
		C6.564,30.403,0,46.25,0,63.107c0,16.858,6.564,32.707,18.487,44.625c11.918,11.92,27.765,18.485,44.622,18.485
		c16.858,0,32.705-6.565,44.625-18.485C132.34,83.127,132.34,43.09,107.734,18.483 M106.703,35.41l-3.671,10.821l-18.601,5.988
		L68.253,40.464V19.779l8.849-6.429c8.441,2.36,16.183,6.846,22.55,13.215C102.384,29.295,104.713,32.276,106.703,35.41
		 M49.116,13.35l8.848,6.429v20.685L41.877,52.155l-19.192-6.262l-3.581-9.894c2.092-3.383,4.581-6.55,7.463-9.431
		C32.934,20.198,40.675,15.712,49.116,13.35 M11.431,63.107c0-0.161,0.011-0.318,0.011-0.478l8.678-6.754l19.241,6.279l5.446,16.77
		L34.478,92.971l-13.81-0.381C14.671,83.997,11.431,73.804,11.431,63.107 M46.655,112.108l-3.859-13.091l9.585-13.028h21.652
		l9.607,13.42l-4.046,12.69c-5.245,1.757-10.793,2.686-16.485,2.686C57.426,114.786,51.892,113.862,46.655,112.108 M105.135,93.088
		l-13.317,0.076L81.476,78.716l5.35-16.46l19.147-6.167l8.764,6.54C114.839,73.323,111.615,84.013,105.135,93.088"/>
</g>
</svg>
