<svg id="Слой_1" data-name="Слой 1" xmlns="http://www.w3.org/2000/svg" width="1247" height="652" viewBox="0 0 1247 652"><defs><style>.cls-1,.cls-26{fill:#775237;}.cls-1,.cls-10,.cls-11,.cls-12,.cls-13,.cls-14,.cls-15,.cls-16,.cls-17,.cls-18,.cls-19,.cls-2,.cls-20,.cls-21,.cls-28,.cls-29,.cls-3,.cls-30,.cls-31,.cls-32,.cls-33,.cls-34,.cls-35,.cls-36,.cls-38,.cls-39,.cls-4,.cls-40,.cls-41,.cls-42,.cls-43,.cls-44,.cls-5,.cls-6,.cls-7,.cls-8,.cls-9{fill-rule:evenodd;}.cls-2{fill:#474553;}.cls-3{fill:#8e6340;}.cls-4{fill:#b37e57;}.cls-5{fill:#776b5f;}.cls-6{fill:#fff;}.cls-7{fill:#ffc442;}.cls-23,.cls-8{fill:#ffe46d;}.cls-9{fill:#efebe4;}.cls-10{fill:#fffaf0;}.cls-11{fill:#e5e0d6;}.cls-12{fill:#d8d8d8;}.cls-13{fill:#cc7a16;}.cls-14{fill:#ae6614;}.cls-15{fill:#665534;}.cls-16{fill:#b1d86e;}.cls-17{fill:#9cba39;}.cls-18{fill:#859f31;}.cls-19,.cls-37{fill:#ffae01;}.cls-20{fill:#d3553c;}.cls-21{fill:#ff6239;}.cls-22,.cls-40{fill:#fed20e;}.cls-24{fill:#fff9cb;}.cls-25{fill:#fbdf9f;}.cls-27{fill:#168491;}.cls-28{fill:#22c2d8;}.cls-29{fill:#ff972a;}.cls-30{fill:#fe871d;}.cls-31{fill:#006738;}.cls-32{fill:#219851;}.cls-33{fill:#65ca30;}.cls-34{fill:#b5e543;}.cls-35{fill:#019444;}.cls-36{fill:#63c03c;}.cls-38{fill:#ffcb97;}.cls-39{fill:#0d8b27;}.cls-41{fill:#e7465f;}.cls-42{fill:#c82c40;}.cls-43{fill:#4d5f8d;}.cls-44{fill:#5c483a;}</style></defs><title>island</title><polygon class="cls-1" points="1086.43 448.5 1148.56 572.76 1024.3 572.76 1086.43 448.5"/><polygon class="cls-2" points="1086.43 448.5 1148.56 572.76 1086.43 572.76 1086.43 448.5"/><polygon class="cls-3" points="1137.12 512.61 1167.19 572.76 1097.35 572.76 1125.93 515.61 1137.12 512.61"/><polygon class="cls-2" points="1137.12 512.61 1167.19 572.76 1132.27 572.76 1132.27 513.91 1137.12 512.61"/><polygon class="cls-4" points="1030.79 529.82 1052.26 572.76 1009.31 572.76 1030.79 529.82"/><polygon class="cls-5" points="1030.79 529.82 1052.26 572.76 1030.79 572.76 1030.79 529.82"/><path class="cls-6" d="M976.37,572.77h-8.85a8.85,8.85,0,1,1,17.7,0Z"/><path class="cls-6" d="M1009.61,572.77h8.85a8.85,8.85,0,1,0-17.7,0Z"/><path class="cls-6" d="M1045,572.77h8.85a8.85,8.85,0,1,0-17.7,0Z"/><path class="cls-6" d="M1027.31,572.77h-8.85a8.85,8.85,0,1,1,17.7,0Z"/><path class="cls-6" d="M1115.81,572.77h8.85a8.85,8.85,0,1,0-17.7,0Z"/><path class="cls-6" d="M1098.11,572.77h-8.85a8.85,8.85,0,1,1,17.7,0Z"/><path class="cls-6" d="M1062.71,572.77h-8.85a8.85,8.85,0,1,1,17.7,0Z"/><path class="cls-6" d="M1080.41,572.77h8.85a8.85,8.85,0,1,0-17.7,0Z"/><path class="cls-6" d="M1133.51,572.77h-8.85a8.85,8.85,0,1,1,17.7,0Z"/><path class="cls-6" d="M1151.21,572.77h8.85a8.85,8.85,0,1,0-17.7,0Z"/><path class="cls-6" d="M1168.91,572.77h-8.85a8.85,8.85,0,1,1,17.7,0Z"/><path class="cls-6" d="M682.49,549.72h8.85a8.85,8.85,0,1,0-17.7,0Z"/><path class="cls-6" d="M774.74,549.72h8.85a8.85,8.85,0,1,0-17.7,0Z"/><path class="cls-6" d="M700.19,549.72h-8.85a8.85,8.85,0,1,1,17.7,0Z"/><path class="cls-6" d="M792.44,549.72h-8.85a8.85,8.85,0,1,1,17.7,0Z"/><path class="cls-6" d="M810.14,549.72H819a8.85,8.85,0,1,0-17.7,0Z"/><path class="cls-6" d="M423.14,549.72H432a8.85,8.85,0,1,0-17.7,0Z"/><path class="cls-6" d="M291.89,549.72H283a8.85,8.85,0,1,1,17.7,0Z"/><path class="cls-6" d="M621.95,70.37a2.18,2.18,0,0,1,4.35,0V83.72h-4.35V70.37Zm32.92,28.57a2.18,2.18,0,0,1,0,4.35H641.52V98.94Zm-61.5,4.35a2.18,2.18,0,0,1,0-4.35h13.35v4.35Zm58.47,11.32a2.18,2.18,0,0,1-2.17,3.77L638.1,111.7l2.17-3.77,11.56,6.67Zm-55.44-27a2.18,2.18,0,0,1,2.17-3.77l11.56,6.67L608,94.3,596.4,87.63Zm45,39-6.67-11.56-3.77,2.17,6.67,11.56a2.18,2.18,0,0,0,3.77-2.17ZM606.86,75.58l6.67,11.56L617.31,85,610.63,73.4a2.18,2.18,0,0,0-3.77,2.17Zm42.8,8.28a2.18,2.18,0,0,1,2.17,3.77L640.28,94.3l-2.17-3.77,11.56-6.67Zm-51.09,34.52a2.18,2.18,0,0,1-2.17-3.77L608,107.93l2.17,3.77-11.56,6.67Zm39-45L630.94,85l3.77,2.17,6.67-11.56a2.18,2.18,0,0,0-3.77-2.17Zm-27,55.44,6.67-11.56-3.77-2.17-6.67,11.56a2.18,2.18,0,0,0,3.77,2.17Zm15.67,3a2.18,2.18,0,0,1-4.35,0V118.52h4.35Z"/><path class="cls-7" d="M624.12,124.52a23.4,23.4,0,1,0-23.4-23.4A23.45,23.45,0,0,0,624.12,124.52Z"/><path class="cls-8" d="M624.12,120.43a19.31,19.31,0,1,0-19.31-19.31A19.35,19.35,0,0,0,624.12,120.43Z"/><path class="cls-9" d="M802.15,130.29a7.6,7.6,0,1,1,0,15.2h-30.4a7.6,7.6,0,0,1,0-15.2,15.2,15.2,0,0,1,30.4,0Z"/><path class="cls-10" d="M965,130.29a7.6,7.6,0,1,1,0,15.2h-30.4a7.6,7.6,0,0,1,0-15.2,15.2,15.2,0,0,1,30.4,0Z"/><path class="cls-11" d="M476.49,130.29a7.6,7.6,0,0,1,0,15.2H446.1a7.6,7.6,0,1,1,0-15.2,15.2,15.2,0,0,1,30.4,0Z"/><path class="cls-12" d="M313.67,130.29a7.6,7.6,0,1,1,0,15.2h-30.4a7.6,7.6,0,0,1,0-15.2,15.2,15.2,0,0,1,30.4,0Z"/><polygon class="cls-1" points="169.45 412.81 249.43 572.76 89.47 572.76 169.45 412.81"/><polygon class="cls-3" points="169.45 412.81 209.41 492.74 138.93 473.85 169.45 412.81"/><polygon class="cls-2" points="169.45 412.81 249.43 572.76 169.45 572.76 169.45 412.81"/><polygon class="cls-3" points="133.08 479.04 179.94 572.76 86.22 572.76 133.08 479.04"/><polygon class="cls-5" points="133.08 479.04 179.94 572.76 133.08 572.76 133.08 479.04"/><polygon class="cls-4" points="249.88 545.51 263.51 572.76 192.79 572.76 211.55 535.24 249.88 545.51"/><polygon class="cls-3" points="249.88 545.51 263.51 572.76 228.15 572.76 228.15 539.69 249.88 545.51"/><path class="cls-6" d="M86.22,572.77H77.37a8.85,8.85,0,1,1,17.7,0Z"/><path class="cls-6" d="M103.92,572.77h8.85a8.85,8.85,0,1,0-17.7,0Z"/><path class="cls-6" d="M139.32,572.77h8.85a8.85,8.85,0,1,0-17.7,0Z"/><path class="cls-6" d="M121.62,572.77h-8.85a8.85,8.85,0,1,1,17.7,0Z"/><path class="cls-6" d="M210.12,572.77H219a8.85,8.85,0,1,0-17.7,0Z"/><path class="cls-6" d="M192.42,572.77h-8.85a8.85,8.85,0,1,1,17.7,0Z"/><path class="cls-6" d="M157,572.77h-8.85a8.85,8.85,0,1,1,17.7,0Z"/><path class="cls-6" d="M174.72,572.77h8.85a8.85,8.85,0,1,0-17.7,0Z"/><path class="cls-6" d="M227.82,572.77H219a8.85,8.85,0,1,1,17.7,0Z"/><path class="cls-6" d="M245.52,572.77h8.85a8.85,8.85,0,1,0-17.7,0Z"/><path class="cls-6" d="M263.22,572.77h-8.85a8.85,8.85,0,1,1,17.7,0Z"/><path class="cls-6" d="M225,595.81h8.85a8.85,8.85,0,1,0-17.7,0Z"/><path class="cls-6" d="M368.63,595.81h8.85a8.85,8.85,0,1,0-17.7,0Z"/><path class="cls-6" d="M207.28,595.81h-8.85a8.85,8.85,0,1,1,17.7,0Z"/><path class="cls-6" d="M750.35,595.81h8.85a8.85,8.85,0,1,0-17.7,0Z"/><path class="cls-6" d="M768.05,595.81H759.2a8.85,8.85,0,1,1,17.7,0Z"/><path class="cls-6" d="M1081.05,595.81h-8.85a8.85,8.85,0,1,1,17.7,0Z"/><path class="cls-6" d="M1037.9,595.81h8.85a8.85,8.85,0,1,0-17.7,0Z"/><path class="cls-6" d="M1020.2,595.81h-8.85a8.85,8.85,0,1,1,17.7,0Z"/><polygon class="cls-13" points="508.88 163.18 660.7 466.82 357.16 466.64 508.88 163.18"/><polygon class="cls-14" points="653.39 452.19 660.7 466.82 357.16 466.64 398.52 383.9 653.39 452.19"/><polygon class="cls-1" points="508.88 163.18 660.7 466.82 508.88 466.82 508.88 163.18"/><polygon class="cls-15" points="704.44 352.99 761.27 466.64 466.38 466.64 544.62 310.16 704.44 352.99"/><polygon class="cls-2" points="704.44 352.99 761.27 466.64 613.83 466.64 613.83 328.7 704.44 352.99"/><polygon class="cls-16" points="872.01 466.64 845.01 437.48 818.02 464.48 791.02 437.48 764.02 464.48 737.03 437.48 710.03 464.48 683.03 437.48 656.04 464.48 629.04 437.48 602.04 464.48 575.05 437.48 548.05 464.48 521.05 437.48 494.06 464.48 467.06 437.48 440.06 464.48 413.07 437.48 386.07 464.48 357.16 466.64 872.01 466.64"/><polygon class="cls-17" points="891.26 466.64 872.01 437.48 845.01 464.48 818.02 437.48 791.02 464.48 764.02 437.48 737.03 464.48 710.03 437.48 683.03 464.48 656.04 437.48 629.04 464.48 602.04 437.48 575.05 464.48 548.05 437.48 521.05 464.48 494.06 437.48 467.06 464.48 440.06 437.48 413.07 464.48 386.07 437.48 357.16 466.64 891.26 466.64"/><path class="cls-18" d="M683,466.64H656V437.48l27,27v2.16Zm54,0H710V437.48l27,27v2.16Zm54,0H764V437.48l27,27v2.16Zm54,0H818V437.48l27,27v2.16Zm27,0V437.48l19.25,29.16Zm-243,0H602V437.48l27,27v2.16Zm-272,.18Zm56-.18h-27V437.48l27,27v2.16Zm54,0h-27V437.48l27,27v2.16Zm54,0h-27V437.48l27,27v2.16Zm54,0H548V437.48l27,27Z"/><polygon class="cls-19" points="772.59 466.64 783.99 466.64 783.99 259.67 783.99 225.17 772.59 225.17 772.59 259.67 772.59 466.64"/><polygon class="cls-3" points="783.99 259.67 775.36 268.29 783.99 276.91 775.36 285.54 783.99 294.16 775.36 302.79 783.99 311.41 775.36 320.03 783.99 328.66 775.36 337.28 783.99 345.9 775.36 354.53 783.99 363.15 775.36 371.78 783.99 380.4 775.36 389.02 783.99 397.65 775.36 406.27 783.99 414.9 775.36 423.52 783.99 432.14 775.36 440.77 783.99 449.39 775.36 458.02 783.99 466.64 783.99 225.17 775.36 233.79 783.99 242.42 775.36 251.04 783.99 259.67"/><path class="cls-20" d="M772.37,419.07a54.23,54.23,0,0,1-14.29,53.32,54.23,54.23,0,0,1,14.29-53.32Z"/><path class="cls-21" d="M772.37,419.07a54,54,0,0,1,1.85,10.48l-9.3,34.7a54,54,0,0,1-6.84,8.15,54,54,0,0,1-1.85-10.48l9.3-34.7A54,54,0,0,1,772.37,419.07Z"/><rect class="cls-22" x="764.54" y="428.75" width="10.13" height="1.27" transform="translate(155.57 1061.54) rotate(-74.99)"/><rect class="cls-23" x="357.16" y="466.64" width="534.1" height="60.04"/><path class="cls-7" d="M882.88,508.82l-5.21-5.21-5.21,5.21Zm-17.44,0-5.21-5.21L855,508.82Zm-496.55,0-5.21-5.21-5.21,5.21Zm347.1,0-5.21-5.21-5.21,5.21Zm-17.44,0-5.21-5.21-5.21,5.21Z"/><path class="cls-7" d="M891.26,466.64h-7.42l5.21,5.21,2.21-2.21v-3Zm-31.88,0H849l5.21,5.21,5.21-5.21Zm-17.44,0H831.51l5.21,5.21,5.21-5.21Zm-25.47,0H806l5.21,5.21,5.21-5.21Zm-45,0H761.06l5.21,5.21,5.21-5.21Zm-90,0H671.05l5.21,5.21,5.21-5.21Zm-17.44,0H653.61l5.21,5.21,5.21-5.21Zm-122.15,0H531.45l5.21,5.21,5.21-5.21Zm-79.22,0H452.24l5.21,5.21,5.21-5.21Zm-20.84,0H431.4l5.21,5.21,5.21-5.21Zm-27.49,0H403.91l5.21,5.21,5.21-5.21Zm-17.44,0H386.47l5.21,5.21,5.21-5.21Zm-25.47,0H361l5.21,5.21Z"/><rect class="cls-24" x="610.93" y="407.29" width="111.6" height="51.6"/><rect class="cls-25" x="610.93" y="407.29" width="111.6" height="21.26"/><polygon class="cls-1" points="623.13 462.76 623.13 466.64 617.79 466.64 617.79 462.76 606.65 462.76 606.65 458.89 726.82 458.89 726.82 462.76 715.67 462.76 715.67 466.64 710.34 466.64 710.35 462.76 669.4 462.76 669.4 466.64 664.07 466.64 664.07 462.76 623.13 462.76"/><rect class="cls-26" x="590" y="462.76" width="16.65" height="3.88"/><rect class="cls-27" x="632.98" y="424.18" width="14.83" height="17.8"/><polygon class="cls-28" points="647.82 428.85 647.82 441.99 634.68 441.99 647.82 428.85"/><rect class="cls-27" x="685.65" y="424.18" width="14.83" height="17.8"/><polygon class="cls-28" points="700.49 428.85 700.49 441.99 687.35 441.99 700.49 428.85"/><path class="cls-21" d="M633,424.18h-7.42V442H633v-17.8Zm22.25,0h-7.42V442h7.42Z"/><path class="cls-21" d="M685.65,424.18h-7.42V442h7.42v-17.8Zm22.25,0h-7.42V442h7.42Z"/><path class="cls-7" d="M596,373.09H737.42L748.3,384H737.42l10.87,10.88H737.42l10.87,10.87H737.42l10.87,10.88H585.17L596,405.71H585.17L596,394.84H585.17L596,384H585.17Z"/><path class="cls-19" d="M639.55,416.59l-10.87-10.88h10.87l-10.87-10.87h10.87L628.67,384h10.87l-10.87-10.87H617.8L606.92,384H617.8l-10.87,10.88H617.8l-10.87,10.87H617.8l-10.87,10.88Z"/><polygon class="cls-29" points="639.55 416.59 628.67 405.71 639.55 405.71 628.67 394.84 639.55 394.84 628.67 383.96 639.55 383.96 628.67 373.09 623.24 373.09 623.24 416.59 639.55 416.59"/><path class="cls-29" d="M683,416.59l-10.87-10.88H683l-10.87-10.87H683L672.17,384H683l-10.87-10.87H661.3L650.42,384H661.3l-10.87,10.88H661.3l-10.87,10.87H661.3l-10.87,10.88Z"/><polygon class="cls-30" points="683.05 416.59 672.17 405.71 683.05 405.71 672.17 394.84 683.05 394.84 672.17 383.96 683.05 383.96 672.17 373.09 666.74 373.09 666.74 416.59 683.05 416.59"/><path class="cls-19" d="M726.55,416.59l-10.87-10.88h10.87l-10.87-10.87h10.87L715.67,384h10.87l-10.87-10.87H704.8L693.92,384H704.8l-10.87,10.88H704.8l-10.87,10.87H704.8l-10.87,10.88Z"/><polygon class="cls-30" points="726.55 416.59 715.67 405.71 726.55 405.71 715.67 394.84 726.55 394.84 715.67 383.96 726.55 383.96 715.67 373.09 710.23 373.09 710.23 416.59 726.55 416.59"/><path class="cls-1" d="M623.24,371.81a1.28,1.28,0,0,1,1.27,1.27v43.5a1.28,1.28,0,1,1-2.55,0v-43.5A1.28,1.28,0,0,1,623.24,371.81Z"/><path class="cls-1" d="M666.73,371.81a1.28,1.28,0,0,1,1.27,1.27v43.5a1.27,1.27,0,1,1-2.55,0v-43.5A1.28,1.28,0,0,1,666.73,371.81Z"/><path class="cls-1" d="M710.23,371.81a1.28,1.28,0,0,1,1.28,1.27v43.5a1.28,1.28,0,1,1-2.55,0v-43.5A1.28,1.28,0,0,1,710.23,371.81Z"/><path class="cls-31" d="M808.63,240.73a55.37,55.37,0,0,0-30.34-15.56,55.64,55.64,0,0,0,45.9,45.9A55.37,55.37,0,0,0,808.63,240.73Z"/><path class="cls-32" d="M753,248.06a55.37,55.37,0,0,1,25.28-22.89,55.64,55.64,0,0,1-32.46,56.22A55.37,55.37,0,0,1,753,248.06Z"/><path class="cls-33" d="M778.29,225.17a55.64,55.64,0,0,1-32.46,56.22Z"/><path class="cls-31" d="M745.83,214.72a55.37,55.37,0,0,1,32.46,10.45,55.64,55.64,0,0,1-64.92,0A55.37,55.37,0,0,1,745.83,214.72Z"/><path class="cls-32" d="M817.66,245.45l2.43-9.08,1.87,9.2a55.19,55.19,0,0,0,7-.52l1.57-5.87,1.11,5.43A55.58,55.58,0,0,0,841,242a55.64,55.64,0,0,0-62.7-16.8,55.51,55.51,0,0,0,8.88,8.68l1.57-5.87,1.64,8.2a55.2,55.2,0,0,0,6.37,3.68l2.43-9.08,2.24,11.11a56.39,56.39,0,0,0,5.51,1.78l2.7-10.09,2.26,11.19A55.6,55.6,0,0,0,817.66,245.45Z"/><path class="cls-33" d="M734.05,223l2.43-9.08-6.22,7a55.21,55.21,0,0,1-5.81-4l1.57-5.87-3.68,4.15a55.59,55.59,0,0,1-6.77-7,55.64,55.64,0,0,1,62.71,16.8,55.52,55.52,0,0,1-12,3.07l1.57-5.87-5.52,6.28a55.2,55.2,0,0,1-7.36,0l2.43-9.08-7.49,8.5a56.26,56.26,0,0,1-5.66-1.21l2.7-10.09-7.55,8.56A55.62,55.62,0,0,1,734.05,223Z"/><path class="cls-32" d="M780.41,269.4l9.08-2.43-7,6.22a55.22,55.22,0,0,0,4,5.81l5.87-1.57-4.15,3.68a55.59,55.59,0,0,0,7,6.77,55.64,55.64,0,0,0-16.8-62.71,55.52,55.52,0,0,0-3.07,12l5.87-1.57-6.28,5.52a55.2,55.2,0,0,0,0,7.36l9.08-2.43-8.5,7.49a56.26,56.26,0,0,0,1.21,5.66l10.09-2.7-8.56,7.55A55.62,55.62,0,0,0,780.41,269.4Z"/><path class="cls-34" d="M778.29,225.17a55.64,55.64,0,0,1,16.8,62.7Z"/><path class="cls-35" d="M748.51,192.39l8.14-4.7-9.37.58a55.21,55.21,0,0,1-1.31-6.91l5.27-3-5.54.34a55.56,55.56,0,0,1,.13-9.71,55.64,55.64,0,0,1,32.46,56.22,55.52,55.52,0,0,1-10.68-6.33l5.27-3-8.35.53a55.2,55.2,0,0,1-5.2-5.21l8.14-4.7-11.31.72a56.23,56.23,0,0,1-3.15-4.86l9-5.22-11.39.71A55.65,55.65,0,0,1,748.51,192.39Z"/><path class="cls-34" d="M778.29,225.17A55.64,55.64,0,0,0,745.83,169Z"/><path class="cls-34" d="M820.47,211.67l-4.7-8.14,7.82,5.18a55.19,55.19,0,0,0,4.59-5.33l-3-5.27,4.63,3.06a55.56,55.56,0,0,0,4.74-8.47,55.64,55.64,0,0,0-56.22,32.46A55.52,55.52,0,0,0,790.7,225l-3-5.27,7,4.64a55.21,55.21,0,0,0,7.11-1.91l-4.7-8.14,9.44,6.27a56.14,56.14,0,0,0,5.16-2.63l-5.22-9,9.51,6.31A55.6,55.6,0,0,0,820.47,211.67Z"/><path class="cls-36" d="M778.29,225.17a55.64,55.64,0,0,1,56.22-32.46Z"/><rect class="cls-37" x="357.16" y="266.19" width="11.04" height="200.45"/><polygon class="cls-3" points="368.2 266.19 359.85 274.54 368.2 282.89 359.85 291.24 368.2 299.6 359.85 307.95 368.2 316.3 359.85 324.65 368.2 333 359.85 341.36 368.2 349.71 359.85 358.06 368.2 366.41 359.85 374.76 368.2 383.12 359.85 391.47 368.2 399.82 359.85 408.17 368.2 416.53 359.85 424.88 368.2 433.23 359.85 441.58 368.2 449.94 359.85 458.29 368.2 466.64 368.2 266.19"/><path class="cls-31" d="M394.08,282.3a57.31,57.31,0,0,0-31.41-16.11,57.6,57.6,0,0,0,47.52,47.52A57.31,57.31,0,0,0,394.08,282.3Z"/><path class="cls-31" d="M336.51,289.88a57.31,57.31,0,0,1,26.17-23.69,57.6,57.6,0,0,1-33.6,58.2A57.31,57.31,0,0,1,336.51,289.88Z"/><path class="cls-33" d="M327.42,264.44a57.31,57.31,0,0,1,35.25,1.75,57.6,57.6,0,0,1-64.91,17.39A57.31,57.31,0,0,1,327.42,264.44Z"/><path class="cls-32" d="M407.48,275.91v-9.73l4.33,8.7a57.17,57.17,0,0,0,6.87-2.4v-6.3l2.56,5.14a57.55,57.55,0,0,0,8.64-5.14,57.6,57.6,0,0,0-67.2,0,57.48,57.48,0,0,0,11.2,6.3v-6.3l3.84,7.76a57.15,57.15,0,0,0,7.36,2v-9.73l5.21,10.51a58.2,58.2,0,0,0,6,.31V266.19l5.26,10.58A57.55,57.55,0,0,0,407.48,275.91Z"/><path class="cls-32" d="M319,252.21l4.86-8.42-8.1,5.37a57.17,57.17,0,0,1-4.75-5.51l3.15-5.45-4.79,3.17a57.56,57.56,0,0,1-4.91-8.77,57.6,57.6,0,0,1,58.2,33.6,57.47,57.47,0,0,1-12.85-.15l3.15-5.45-7.21,4.8a57.15,57.15,0,0,1-7.36-2l4.86-8.42-9.77,6.49a58.2,58.2,0,0,1-5.34-2.73l5.41-9.37-9.84,6.53A57.6,57.6,0,0,1,319,252.21Z"/><path class="cls-32" d="M376.65,309.85l8.42-4.86-5.37,8.1a57.18,57.18,0,0,0,5.51,4.75l5.45-3.15-3.17,4.79a57.56,57.56,0,0,0,8.77,4.91,57.6,57.6,0,0,0-33.6-58.2,57.45,57.45,0,0,0,.15,12.85l5.45-3.15-4.8,7.21a57.16,57.16,0,0,0,2,7.36l8.42-4.86-6.49,9.77a58.1,58.1,0,0,0,2.73,5.34l9.37-5.41-6.53,9.84A57.61,57.61,0,0,0,376.65,309.85Z"/><path class="cls-34" d="M362.68,266.19a57.6,57.6,0,0,1,33.6,58.2Z"/><path class="cls-35" d="M364.88,220.4l9.4,2.52L367,216.48a57.17,57.17,0,0,1,4.1-6l6.08,1.63-4.3-3.81a57.54,57.54,0,0,1,7.2-7,57.6,57.6,0,0,1-17.39,64.91,57.49,57.49,0,0,1-3.18-12.45l6.08,1.63-6.5-5.72a57.1,57.1,0,0,1,0-7.62l9.4,2.52-8.8-7.75a58.22,58.22,0,0,1,1.25-5.86l10.45,2.8-8.86-7.82A57.5,57.5,0,0,1,364.88,220.4Z"/><path class="cls-34" d="M362.68,266.19a57.6,57.6,0,0,0-58.2-33.6Z"/><path class="cls-34" d="M406.34,252.21l-4.86-8.42,8.1,5.37a57.12,57.12,0,0,0,4.75-5.51l-3.15-5.45,4.79,3.17a57.57,57.57,0,0,0,4.91-8.77,57.6,57.6,0,0,0-58.2,33.6,57.47,57.47,0,0,0,12.85-.15l-3.15-5.45,7.21,4.8a57.16,57.16,0,0,0,7.36-2L382.08,255l9.77,6.49a58.24,58.24,0,0,0,5.34-2.73l-5.41-9.37,9.84,6.53A57.64,57.64,0,0,0,406.34,252.21Z"/><path class="cls-36" d="M362.68,266.19a57.59,57.59,0,0,1,58.2-33.6Z"/><path class="cls-35" d="M328.74,297l-4.86-8.42.6,9.7a57.15,57.15,0,0,1-7.15,1.36l-3.15-5.45.35,5.73a57.52,57.52,0,0,1-10-.13,57.6,57.6,0,0,1,58.2-33.6,57.46,57.46,0,0,1-6.55,11.05L353,271.79l.55,8.64a57.14,57.14,0,0,1-5.39,5.38l-4.86-8.42.74,11.71a58.29,58.29,0,0,1-5,3.26L333.58,283l.74,11.79A57.56,57.56,0,0,1,328.74,297Z"/><rect class="cls-37" x="879.86" y="259.67" width="11.4" height="206.97"/><polygon class="cls-3" points="891.26 259.67 882.63 268.29 891.26 276.91 882.63 285.54 891.26 294.16 882.63 302.79 891.26 311.41 882.63 320.03 891.26 328.66 882.63 337.28 891.26 345.9 882.63 354.53 891.26 363.15 882.63 371.78 891.26 380.4 882.63 389.02 891.26 397.65 882.63 406.27 891.26 414.9 882.63 423.52 891.26 432.14 882.63 440.77 891.26 449.39 882.63 458.02 891.26 466.64 891.26 259.67"/><path class="cls-31" d="M915.9,275.23a55.37,55.37,0,0,0-30.34-15.56,55.64,55.64,0,0,0,45.9,45.9A55.37,55.37,0,0,0,915.9,275.23Z"/><path class="cls-32" d="M860.28,282.55a55.37,55.37,0,0,1,25.28-22.89,55.64,55.64,0,0,1-32.46,56.22A55.37,55.37,0,0,1,860.28,282.55Z"/><path class="cls-33" d="M885.56,259.67a55.64,55.64,0,0,1-32.46,56.22Z"/><path class="cls-33" d="M851.5,258a55.37,55.37,0,0,1,34.06,1.69,55.64,55.64,0,0,1-62.7,16.8A55.37,55.37,0,0,1,851.5,258Z"/><path class="cls-32" d="M928.84,269.06v-9.4l4.18,8.4a55.22,55.22,0,0,0,6.64-2.32v-6.08l2.48,5a55.57,55.57,0,0,0,8.34-5,55.64,55.64,0,0,0-64.92,0,55.52,55.52,0,0,0,10.82,6.08v-6.08l3.71,7.5a55.2,55.2,0,0,0,7.11,1.9v-9.4l5,10.15a56.28,56.28,0,0,0,5.78.3V259.67l5.08,10.22A55.59,55.59,0,0,0,928.84,269.06Z"/><path class="cls-32" d="M842.28,269.06v-9.4l-4.18,8.4a55.22,55.22,0,0,1-6.64-2.32v-6.08l-2.48,5a55.57,55.57,0,0,1-8.34-5,55.64,55.64,0,0,1,64.92,0,55.52,55.52,0,0,1-10.82,6.08v-6.08l-3.71,7.5a55.2,55.2,0,0,1-7.11,1.9v-9.4l-5,10.15a56.28,56.28,0,0,1-5.78.3V259.67L848,269.89A55.58,55.58,0,0,1,842.28,269.06Z"/><path class="cls-32" d="M899.06,301.84l8.14-4.7L902,305a55.18,55.18,0,0,0,5.33,4.59l5.27-3-3.06,4.63a55.56,55.56,0,0,0,8.47,4.74,55.64,55.64,0,0,0-32.46-56.22,55.53,55.53,0,0,0,.14,12.41l5.27-3-4.64,7a55.22,55.22,0,0,0,1.91,7.11l8.14-4.7-6.27,9.44a56.1,56.1,0,0,0,2.63,5.16l9-5.22-6.31,9.51A55.58,55.58,0,0,0,899.06,301.84Z"/><path class="cls-34" d="M885.56,259.67A55.64,55.64,0,0,1,918,315.89Z"/><path class="cls-35" d="M848.31,235.71l6.64-6.64-8.9,3a55.15,55.15,0,0,1-3.05-6.33l4.3-4.3L842,223.17a55.55,55.55,0,0,1-2.39-9.41,55.64,55.64,0,0,1,45.9,45.9,55.51,55.51,0,0,1-12-3.35l4.3-4.3L870,254.69a55.18,55.18,0,0,1-6.37-3.68l6.64-6.64L859.52,248a56.21,56.21,0,0,1-4.3-3.88l7.39-7.39-10.82,3.63A55.63,55.63,0,0,1,848.31,235.71Z"/><path class="cls-34" d="M885.56,259.67a55.64,55.64,0,0,0-64.92,0Z"/><path class="cls-32" d="M915.34,226.88l-8.14-4.7,9.37.58a55.22,55.22,0,0,0,1.31-6.91l-5.27-3,5.54.34a55.56,55.56,0,0,0-.13-9.71,55.64,55.64,0,0,0-32.46,56.22,55.52,55.52,0,0,0,10.68-6.33l-5.27-3,8.35.53a55.2,55.2,0,0,0,5.2-5.21l-8.14-4.7,11.31.72a56.25,56.25,0,0,0,3.15-4.86l-9-5.22,11.39.71A55.64,55.64,0,0,0,915.34,226.88Z"/><path class="cls-34" d="M885.56,259.67A55.64,55.64,0,0,1,918,203.45Z"/><path class="cls-6" d="M781,446.49a10.8,10.8,0,1,1-4,14.75,10.8,10.8,0,0,1,4-14.75Zm2.39,4.13a6,6,0,1,0,8.23,2.21A6,6,0,0,0,783.43,450.62Z"/><path class="cls-38" d="M782.22,448.53a8.44,8.44,0,1,1-3.09,11.53,8.44,8.44,0,0,1,3.09-11.53Zm1.2,2.09a6,6,0,1,0,8.23,2.21A6,6,0,0,0,783.43,450.62Z"/><path class="cls-21" d="M781,446.49a10.8,10.8,0,0,1,14.75,4l-4.13,2.39a6,6,0,0,0-8.23-2.21L781,446.49Zm10.8,18.7a10.8,10.8,0,0,1-14.75-4l4.13-2.39a6,6,0,0,0,8.23,2.21Z"/><path class="cls-20" d="M793.75,451.62l-2.09,1.2a6,6,0,0,0-8.23-2.21l-1.2-2.09a8.44,8.44,0,0,1,11.53,3.09Zm-3.09,11.53a8.44,8.44,0,0,1-11.53-3.09l2.09-1.2a6,6,0,0,0,8.23,2.21Z"/><path class="cls-6" d="M538.24,526.68h8.85a8.85,8.85,0,1,0-17.7,0Z"/><path class="cls-6" d="M591.34,526.68h8.85a8.85,8.85,0,1,0-17.7,0Z"/><path class="cls-6" d="M357.3,526.68h-8.85a8.85,8.85,0,1,1,17.7,0Z"/><path class="cls-39" d="M818,466.64h12.26a12.26,12.26,0,0,0-24.52,0Z"/><polygon class="cls-40" points="818.01 450.63 820.47 454.32 824.14 451.85 825 456.19 829.34 455.32 818.01 466.64 806.69 455.32 811.04 456.19 811.89 451.85 815.57 454.32 818.01 450.63"/><polygon class="cls-19" points="818.01 466.64 806.69 455.32 811.04 456.19 811.89 451.85 815.57 454.32 818.01 450.63 818.01 466.64"/><path class="cls-41" d="M818,466.64l7.42-7.42a10.49,10.49,0,0,0-14.84,0Z"/><path class="cls-42" d="M818,466.64l7.42-7.42a10.46,10.46,0,0,0-7.42-3.07Z"/><path class="cls-40" d="M818,466.64,820.7,464a3.79,3.79,0,0,0-5.36,0Z"/><polygon class="cls-31" points="821.46 466.64 818.01 466.64 829.34 455.32 821.46 466.64"/><polygon class="cls-31" points="814.57 466.64 818.01 466.64 806.69 455.32 814.57 466.64"/><path class="cls-39" d="M845,466.64h12.26a12.26,12.26,0,0,0-24.52,0Z"/><polygon class="cls-40" points="845.01 450.63 847.46 454.32 851.14 451.85 851.99 456.19 856.33 455.32 845.01 466.64 833.69 455.32 838.03 456.19 838.88 451.85 842.56 454.32 845.01 450.63"/><polygon class="cls-19" points="845.01 466.64 833.69 455.32 838.03 456.19 838.88 451.85 842.56 454.32 845.01 450.63 845.01 466.64"/><path class="cls-41" d="M845,466.64l7.42-7.42a10.49,10.49,0,0,0-14.84,0Z"/><path class="cls-42" d="M845,466.64l7.42-7.42a10.46,10.46,0,0,0-7.42-3.07Z"/><path class="cls-40" d="M845,466.64l2.68-2.68a3.79,3.79,0,0,0-5.36,0Z"/><polygon class="cls-31" points="848.46 466.64 845.01 466.64 856.33 455.32 848.46 466.64"/><polygon class="cls-31" points="841.57 466.64 845.01 466.64 833.69 455.32 841.57 466.64"/><path class="cls-39" d="M494.06,466.64h12.26a12.26,12.26,0,0,0-24.52,0Z"/><polygon class="cls-40" points="494.06 450.63 496.51 454.32 500.18 451.85 501.04 456.19 505.38 455.32 494.06 466.64 482.74 455.32 487.08 456.19 487.93 451.85 491.61 454.32 494.06 450.63"/><polygon class="cls-19" points="494.06 466.64 482.74 455.32 487.08 456.19 487.93 451.85 491.61 454.32 494.06 450.63 494.06 466.64"/><path class="cls-41" d="M494.06,466.64l7.42-7.42a10.49,10.49,0,0,0-14.84,0Z"/><path class="cls-42" d="M494.06,466.64l7.42-7.42a10.46,10.46,0,0,0-7.42-3.07Z"/><path class="cls-40" d="M494.06,466.64l2.68-2.68a3.79,3.79,0,0,0-5.36,0Z"/><polygon class="cls-31" points="497.5 466.64 494.06 466.64 505.38 455.32 497.5 466.64"/><polygon class="cls-31" points="490.61 466.64 494.06 466.64 482.74 455.32 490.61 466.64"/><path class="cls-43" d="M525.83,549.72h23a28.17,28.17,0,0,0-28.17-28.17C525.6,529.92,526.71,541.14,525.83,549.72Z"/><path class="cls-6" d="M515.39,549.72h8.85a8.85,8.85,0,1,0-17.7,0Z"/><path class="cls-6" d="M587.84,549.72H579a8.85,8.85,0,1,1,17.7,0Z"/><path class="cls-6" d="M533.09,549.72h-8.85a8.85,8.85,0,1,1,17.7,0Z"/><path class="cls-6" d="M550.79,549.72h8.85a8.85,8.85,0,1,0-17.7,0Z"/><path class="cls-6" d="M486.05,549.72h8.85a8.85,8.85,0,1,0-17.7,0Z"/><path class="cls-6" d="M568.49,549.72h8.85a8.85,8.85,0,1,0-17.7,0Z"/><path class="cls-6" d="M535.73,595.81h8.85a8.85,8.85,0,1,0-17.7,0Z"/><path class="cls-6" d="M553.43,595.81h-8.85a8.85,8.85,0,1,1,17.7,0Z"/><path class="cls-6" d="M583.43,595.81h-8.85a8.85,8.85,0,1,1,17.7,0Z"/><path class="cls-6" d="M601.13,595.81H610a8.85,8.85,0,1,0-17.7,0Z"/><polygon class="cls-3" points="354.58 460.67 387.58 526.68 321.57 526.68 354.58 460.67"/><polygon class="cls-5" points="354.58 460.67 387.58 526.68 354.58 526.68 354.58 460.67"/><polygon class="cls-3" points="322.62 506.3 341.09 526.68 292.15 526.68 309.13 507.95 322.62 506.3"/><polygon class="cls-44" points="322.62 506.3 341.09 526.68 316.62 526.68 316.62 507.03 322.62 506.3"/><polygon class="cls-4" points="945.15 467.64 974.68 526.68 821.47 526.68 839.9 489.84 885.52 470.21 898.08 455.02 945.15 467.64"/><polygon class="cls-3" points="945.15 467.64 974.68 526.68 898.08 526.68 898.08 455.02 945.15 467.64"/><polygon class="cls-3" points="807.55 492.1 824.85 526.68 790.26 526.68 807.55 492.1"/><polygon class="cls-5" points="807.55 492.1 824.85 526.68 807.55 526.68 807.55 492.1"/><path class="cls-6" d="M893.69,549.72h8.85a8.85,8.85,0,1,0-17.7,0Z"/><path class="cls-6" d="M827.84,549.72H819a8.85,8.85,0,1,1,17.7,0Z"/><path class="cls-6" d="M855.86,526.68h8.85a8.85,8.85,0,1,0-17.7,0Z"/><path class="cls-6" d="M873.56,526.68h-8.85a8.85,8.85,0,1,1,17.7,0Z"/><path class="cls-6" d="M790.26,526.68h8.85a8.85,8.85,0,1,0-17.7,0Z"/><path class="cls-6" d="M915.14,526.68H924a8.85,8.85,0,1,0-17.7,0Z"/><path class="cls-6" d="M962.06,526.68h8.85a8.85,8.85,0,1,0-17.7,0Z"/><path class="cls-6" d="M979.76,526.68h-8.85a8.85,8.85,0,1,1,17.7,0Z"/><path class="cls-6" d="M334.48,526.68h8.85a8.85,8.85,0,1,0-17.7,0Z"/><path class="cls-6" d="M352.18,526.68h-8.85a8.85,8.85,0,1,1,17.7,0Z"/><path class="cls-6" d="M369.88,526.68h8.85a8.85,8.85,0,1,0-17.7,0Z"/><path class="cls-6" d="M387.58,526.68h-8.85a8.85,8.85,0,1,1,17.7,0Z"/><path class="cls-6" d="M292.15,526.68H301a8.85,8.85,0,1,0-17.7,0Z"/></svg>