<!-- Generator: Adobe Illustrator 17.0.0, SVG Export Plug-In  -->
<svg version="1.1"
	 xmlns="http://www.w3.org/2000/svg" xmlns:xlink="http://www.w3.org/1999/xlink" xmlns:a="http://ns.adobe.com/AdobeSVGViewerExtensions/3.0/"
	 x="0px" y="0px" width="134.602px" height="103.313px" viewBox="0 0 134.602 103.313" enable-background="new 0 0 134.602 103.313"
	 xml:space="preserve">
<defs>
</defs>
<g>
	<defs>
		<rect id="SVGID_1_" y="0" width="134.602" height="103.313"/>
	</defs>
	<clipPath id="SVGID_2_">
		<use xlink:href="#SVGID_1_"  overflow="visible"/>
	</clipPath>
	<path clip-path="url(#SVGID_2_)" d="M132.049,37.406c0,0-10.759-13.933-25.751-26.985C97.831,3.013,93.422,0.72,89.012,1.249
		c-2.116,0.353-4.409,1.94-9.171,5.115c-7.055,4.939-9.348,7.408-11.994,7.937h-0.529c-2.822-0.353-4.939-2.998-12.346-8.113
		c-4.763-3.175-7.056-4.939-9.172-5.115c-4.233-0.53-8.819,1.763-17.285,9.171C13.523,23.296,2.764,37.23,2.764,37.23
		C1.882,37.936,1,39.17,1,40.405c0.176,1.411,1.411,2.293,1.764,2.646c5.115,4.056,16.756,44.094,42.683,55.206
		c5.997,2.469,13.758,4.056,21.695,4.056h0.176c7.937,0,15.874-1.411,21.694-4.056c25.928-11.112,37.745-51.15,42.684-55.206
		c0.176-0.177,1.587-1.235,1.764-2.646C133.989,39.17,132.931,38.112,132.049,37.406 M76.666,63.334
		c-2.469,0.529-5.82,1.058-8.995,1.058h-0.177c-3.351,0-6.526-0.352-8.995-1.058c-10.759-2.822-18.343-14.11-18.52-14.463
		c0-0.353,5.292-4.233,11.465-7.584c3.527-1.764,5.291-2.469,7.231-2.293c0.882,0,1.941,0.529,3.881,1.235
		c2.998,1.234,3.88,1.94,5.115,1.94h0.176c1.235-0.177,2.117-0.706,4.939-1.94c1.94-0.882,2.998-1.235,3.88-1.235
		c1.764-0.176,3.704,0.529,7.231,2.293c6.174,3.175,11.465,7.231,11.465,7.584C95.009,49.224,87.425,60.512,76.666,63.334"/>
	<path clip-path="url(#SVGID_2_)" fill="none" stroke="#000000" stroke-width="2" stroke-miterlimit="10" d="M132.049,37.406
		c0,0-10.759-13.933-25.751-26.985C97.831,3.013,93.422,0.72,89.012,1.249c-2.116,0.353-4.409,1.94-9.171,5.115
		c-7.055,4.939-9.348,7.408-11.994,7.937h-0.529c-2.822-0.353-4.939-2.998-12.346-8.113c-4.763-3.175-7.056-4.939-9.172-5.115
		c-4.233-0.53-8.819,1.763-17.285,9.171C13.523,23.296,2.764,37.23,2.764,37.23C1.882,37.936,1,39.17,1,40.405
		c0.176,1.411,1.411,2.293,1.764,2.646c5.115,4.056,16.756,44.094,42.683,55.206c5.997,2.469,13.758,4.056,21.695,4.056h0.176
		c7.937,0,15.874-1.411,21.694-4.056c25.928-11.112,37.745-51.15,42.684-55.206c0.176-0.177,1.587-1.235,1.764-2.646
		C133.989,39.17,132.931,38.112,132.049,37.406z M76.666,63.334c-2.469,0.529-5.82,1.058-8.995,1.058h-0.177
		c-3.351,0-6.526-0.352-8.995-1.058c-10.759-2.822-18.343-14.11-18.52-14.463c0-0.353,5.292-4.233,11.465-7.584
		c3.527-1.764,5.291-2.469,7.231-2.293c0.882,0,1.941,0.529,3.881,1.235c2.998,1.234,3.88,1.94,5.115,1.94h0.176
		c1.235-0.177,2.117-0.706,4.939-1.94c1.94-0.882,2.998-1.235,3.88-1.235c1.764-0.176,3.704,0.529,7.231,2.293
		c6.174,3.175,11.465,7.231,11.465,7.584C95.009,49.224,87.425,60.512,76.666,63.334z"/>
</g>
</svg>
