<!-- Generated by IcoMoon.io -->
<svg version="1.1" xmlns="http://www.w3.org/2000/svg" width="512" height="512" viewBox="0 0 512 512">
<title></title>
<g id="icomoon-ignore">
</g>
<path fill="#000" d="M394.572 211.3l-13.158 0.005-0.091-65.659c-0.036-71.521-58.25-129.677-129.772-129.639s-129.675 58.246-129.638 129.772l0.091 65.659h-4.656c-24.603 0.011-44.539 19.968-44.523 44.57l0.037 195.48c0.011 24.603 19.968 44.539 44.571 44.524l277.219-0.139c24.601-0.011 44.538-19.968 44.522-44.57l-0.036-195.48c-0.010-24.602-19.962-44.534-44.565-44.523zM268.186 361.344l0.027 55.365-20.183 0.011-0.026-55.365c-11.094-4.113-19.046-14.693-19.051-27.216-0.011-16.086 13.030-29.136 29.115-29.142 16.085-0.011 29.136 13.029 29.14 29.115 0.007 12.518-7.935 23.11-19.024 27.233zM333.611 211.333l-163.804 0.085-0.090-65.659c-0.022-45.157 36.704-81.921 81.863-81.941 45.159-0.022 81.921 36.704 81.941 81.862l0.091 65.654z"></path>
</svg>
