<svg id="Слой_1" data-name="Слой 1" xmlns="http://www.w3.org/2000/svg" width="48" height="48" viewBox="0 0 48 48"><defs><style>.cls-1{fill:#fff;}</style></defs><title>login</title><path class="cls-1" d="M39.4,39.85V40H8.6v-.18a16.5,16.5,0,0,1,.32-2.51,15.46,15.46,0,0,1,8.87-10.92,15.88,15.88,0,0,1,4.84-1.24,22,22,0,0,1,2.75,0A15.4,15.4,0,0,1,39.08,37.34,16.5,16.5,0,0,1,39.4,39.85Z"/><path class="cls-1" d="M29.93,20a9.39,9.39,0,0,1-1.39,1.4,7.55,7.55,0,0,1-5.2,1.51,7.46,7.46,0,0,1-5.69-3.51,7.7,7.7,0,0,1-1.1-4.4,7.49,7.49,0,0,1,7-7,7.7,7.7,0,0,1,4.4,1.1,7.84,7.84,0,0,1,2.42,2.42,9.32,9.32,0,0,1,.75,1.61A7.49,7.49,0,0,1,29.93,20Z"/></svg>