<!-- Generated by IcoMoon.io -->
<svg version="1.1" xmlns="http://www.w3.org/2000/svg" width="509" height="512" viewBox="0 0 509 512">
<title></title>
<g id="icomoon-ignore">
</g>
<path fill="#2af1c1" d="M280.969 265.582s114.94 89.597 0 212.647c-8.561 1.135-18.459 1.784-28.511 1.784-8.85 0-17.584-0.503-26.173-1.483l1.050 0.098c53.708-62.508 49.789-108.507 49.598-110.493-0.387-2.505-2.527-4.397-5.11-4.397-2.855 0-5.167 2.312-5.167 5.167 0 0.090 0.002 0.176 0.007 0.266l-0-0.013c0 0.56 3.536 46.253-51.199 107.42-0.089 0.106-0.174 0.229-0.247 0.356l-0.007 0.014c-16.655-2.798-31.454-6.957-45.559-12.496l1.528 0.531c17.916-20.966 30.983-46.613 37.136-74.841l0.209-1.14c0.035-0.226 0.055-0.489 0.055-0.755 0-2.855-2.312-5.167-5.167-5.167-2.388 0-4.398 1.619-4.991 3.822l-0.007 0.036c-7.84 38.543-29.968 65.599-37.278 73.839-19.755-8.779-36.785-19.363-52.124-31.93l0.398 0.316z"></path>
<path fill="#ee2e5b" d="M367.254 61.83c27.471-22.911 71.565-29.837 71.565-29.837h-157.978v233.589h194.665c0.209-4.065 0.351-8.142 0.351-12.256 0-0.034 0-0.071 0-0.112 0-80.916-43.108-151.761-107.61-190.826l-0.994-0.559zM367.493 198.718c-22.514 0-40.765-18.251-40.765-40.765s18.251-40.765 40.765-40.765c22.514 0 40.765 18.251 40.765 40.765v0 0c0 22.505-18.235 40.749-40.733 40.765h-0.001z"></path>
<path fill="#faa819" d="M256.186 31.989c2.094 0 4.178 0 6.257 0.112v233.477h-229.031c-0.16-3.487-0.273-6.978-0.273-10.513 0-0.008 0-0.021 0-0.034 0-123.173 99.845-223.029 223.013-223.047h0.001z"></path>
<path fill="#f68828" d="M262.425 100.436v165.146h-179.577c12.186-90.817 87.082-160.751 179.147-165.131l0.428-0.016z"></path>
<path fill="#000" d="M342.565 156.512c0 13.749 11.146 24.894 24.894 24.894s24.894-11.145 24.894-24.894c0-13.727-11.11-24.858-24.829-24.894h-0.002c-0.020 0-0.041 0-0.063 0-13.749 0-24.894 11.145-24.894 24.894 0 0 0 0 0 0v0zM356.42 156.225c0-5.937 4.815-10.752 10.752-10.752s10.752 4.815 10.752 10.752c0 5.937-4.815 10.752-10.752 10.752v0c-5.937 0-10.752-4.815-10.752-10.752v0z"></path>
<path fill="#375180" d="M280.841 265.582h194.665c-5.951 107.517-87.708 199.096-194.52 212.647 112.971-121.002-0.146-212.647-0.146-212.647z"></path>
</svg>
