<svg id="Layer_1" data-name="Layer 1" xmlns="http://www.w3.org/2000/svg" width="276.71" height="560" viewBox="0 0 276.71 560"><defs><style>.cls-1{fill:#2af1c1;}.cls-2{fill:#ee2e5b;}.cls-3{fill:#faa819;}.cls-4{fill:#f68828;}.cls-5{fill:#375180;}</style></defs><title>logo</title><g id="Parrot"><path id="Wings" class="cls-1" d="M154.9,286s71.84,56,0,132.91a142.93,142.93,0,0,1-33.52.25c33.57-39.07,31.12-67.82,31-69.06a3.23,3.23,0,0,0-6.42.64c0,.35,2.21,28.91-32,67.14a1.88,1.88,0,0,0-.16.23,140.72,140.72,0,0,1-27.52-7.48,107.8,107.8,0,0,0,23.34-47.49,3.23,3.23,0,0,0-6.32-1.29C98.4,385.94,84.57,402.85,80,408a140.8,140.8,0,0,1-32.33-19.76Z"/><path id="Head" class="cls-2" d="M208.83,158.65C226,144.33,253.56,140,253.56,140H154.82V286H276.49c.13-2.54.22-5.09.22-7.66A139.34,139.34,0,0,0,208.83,158.65Zm.15,85.56a25.48,25.48,0,1,1,25.48-25.48h0A25.48,25.48,0,0,1,209,244.21Z"/><g id="Beak"><path class="cls-3" d="M139.41,140c1.31,0,2.61,0,3.91.07V286H.17c-.1-2.18-.17-4.36-.17-6.57A139.41,139.41,0,0,1,139.39,140Z"/><path class="cls-4" d="M143.31,182.78V286H31.07A118.7,118.7,0,0,1,143.31,182.78Z"/></g><path id="Eye" d="M193.4,217.83A15.56,15.56,0,1,0,209,202.27a15.56,15.56,0,0,0-15.6,15.56Zm8.66-.18a6.72,6.72,0,1,1,6.72,6.72,6.72,6.72,0,0,1-6.72-6.72h0Z"/><path id="Belly" class="cls-5" d="M154.82,286H276.49c-3.72,67.2-54.82,124.44-121.58,132.91C225.52,343.28,154.82,286,154.82,286Z"/></g></svg>