<svg xmlns="http://www.w3.org/2000/svg" width="316.21172" height="560" viewBox="0 0 316.21172 560"><title>logo</title><path d="M177.01845,286.84222s82.09551,63.99428,0,151.88356a163.33409,163.33409,0,0,1-38.30515.28569c38.36227-44.64744,35.56253-77.50165,35.4254-78.91865a3.6911,3.6911,0,0,0-7.33648.73138c0,.4,2.5255,33.037-36.56816,76.72455a2.15109,2.15109,0,0,0-.18284.26285,160.80693,160.80693,0,0,1-31.44862-8.54782,123.189,123.189,0,0,0,26.67191-54.26942,3.68556,3.68556,0,0,0-7.22221-1.47416c-5.5995,27.529-21.4038,46.853-26.68333,52.73813A160.9003,160.9003,0,0,1,54.4237,403.67747Z" fill="#2af1c1"/><path d="M238.64151,141.31237C258.26261,124.94813,289.75694,120,289.75694,120H176.92133V286.84222h139.039c.14856-2.90261.25141-5.81662.25141-8.75351A159.23149,159.23149,0,0,0,238.64151,141.31237Zm.17141,97.77411a29.11739,29.11739,0,1,1,29.11739-29.11739h0a29.11739,29.11739,0,0,1-29.09453,29.11741Z" fill="#ee2e5b"/><path d="M159.31147,120c1.497,0,2.98259,0,4.46818.08V286.84222H.19427C.08,284.351,0,281.85982,0,279.33431A159.31147,159.31147,0,0,1,159.28863,120Z" fill="#faa819"/><path d="M163.76821,168.88705V286.84222H35.5054A135.645,135.645,0,0,1,163.76821,168.88705Z" fill="#f68828"/><path d="M221.0088,208.94062a17.77876,17.77876,0,1,0,.00005-.04577Zm9.89626-.20569a7.67931,7.67931,0,1,1,7.67931,7.67931,7.67932,7.67932,0,0,1-7.67931-7.67931v0Z"/><path d="M176.92133,286.84222h139.039c-4.24721,76.79339-62.64318,142.19954-138.94185,151.88356C257.7198,352.29922,176.92133,286.84222,176.92133,286.84222Z" fill="#375180"/></svg>