<svg xmlns="http://www.w3.org/2000/svg" width="48" height="48" viewBox="0 0 48 48"><title>m-balance</title><path d="M31.77775,12.97153a14.80113,14.80113,0,1,0,4.34581,10.466A14.77842,14.77842,0,0,0,31.77775,12.97153ZM21.503,29.77025c-2.62444-2.6245-6.33275-4.28206-6.33275-7.29963a2.98244,2.98244,0,0,1,1.83823-3.03891A3.77982,3.77982,0,0,1,21.503,20.898a3.83131,3.83131,0,0,1,4.51579-1.46631,3.19181,3.19181,0,0,1,1.8276,3.03891C27.84641,25.50946,24.22312,27.05015,21.503,29.77025Z" style="fill:#fa0"/><path d="M27.84641,22.47062c0,3.03884-3.62329,4.57954-6.34338,7.29963-2.62444-2.6245-6.33275-4.28206-6.33275-7.29963a2.98244,2.98244,0,0,1,1.83823-3.03891A3.77982,3.77982,0,0,1,21.503,20.898a3.83131,3.83131,0,0,1,4.51579-1.46631A3.19181,3.19181,0,0,1,27.84641,22.47062Z" style="fill:#ffc30d"/><path d="M41.5,23.4375A14.84073,14.84073,0,0,1,29.66331,37.95174a16.73831,16.73831,0,0,0,0-29.01791A14.82055,14.82055,0,0,1,41.5,23.4375Z" style="fill:#fa0"/><path d="M27.84641,22.47062c0,3.03884-3.62329,4.57954-6.34338,7.29963-2.62444-2.6245-6.33275-4.28206-6.33275-7.29963a2.98244,2.98244,0,0,1,1.83823-3.03891A3.77982,3.77982,0,0,1,21.503,20.898a3.83131,3.83131,0,0,1,4.51579-1.46631A3.19181,3.19181,0,0,1,27.84641,22.47062Z" style="fill:#fff"/></svg>