<svg xmlns="http://www.w3.org/2000/svg" width="48" height="48" viewBox="0 0 48 48"><title>m.king</title><path d="M41.87,13.1A4.13506,4.13506,0,0,0,38.59,9.78a6.81561,6.81561,0,0,0-3.76.37994c.01-.68,0-1.35-.02-1.99H13.18c-.02.64-.03,1.31-.02,1.99A6.797,6.797,0,0,0,9.4,9.78,4.16056,4.16056,0,0,0,6.12,13.1c-.52,2.3.63,4.93005,3.23,7.42a21.60055,21.60055,0,0,0,7.73,4.61,11.10415,11.10415,0,0,0,4.71,3.9,11.54821,11.54821,0,0,1-3.71,5.92H29.91a11.67919,11.67919,0,0,1-3.71-5.92,10.88173,10.88173,0,0,0,4.71-3.91,21.2654,21.2654,0,0,0,7.73-4.6C41.24,18.03,42.39,15.4,41.87,13.1ZM11.09,18.71C9.2,16.9,8.26,15.02,8.57,13.65a1.71158,1.71158,0,0,1,1.37-1.42,4.85729,4.85729,0,0,1,3.36.78,31.01356,31.01356,0,0,0,1.88,8.56A18.0248,18.0248,0,0,1,11.09,18.71Zm25.81,0a17.59484,17.59484,0,0,1-4.09,2.86,30.30674,30.30674,0,0,0,1.88-8.56,4.88178,4.88178,0,0,1,3.36-.78,1.68786,1.68786,0,0,1,1.37,1.42C39.73,15.02,38.79,16.9,36.9,18.71Z"/><rect x="16.40002" y="36.53003" width="15.19" height="3.28998"/></svg>