<svg xmlns="http://www.w3.org/2000/svg" width="48" height="48" viewBox="0 0 48 48"><title>m-message</title><path d="M38.76,11.13H9.22a2.7271,2.7271,0,0,0-2.73,2.73V34.14a2.7271,2.7271,0,0,0,2.73,2.73H38.76a2.72706,2.72706,0,0,0,2.73-2.73V13.86A2.72706,2.72706,0,0,0,38.76,11.13ZM37.34,32.7a.9542.9542,0,0,1-.69.3.94073.94073,0,0,1-.65-.26l-7.75-7.28L24.9,28.74a.96882.96882,0,0,1-1.31.01l-3.83-3.6-7.77,7.58a.95667.95667,0,0,1-1.34-.02.93868.93868,0,0,1,.02-1.34l7.71-7.51-7.7-7.22a.9481.9481,0,0,1-.04-1.34.936.936,0,0,1,1.33-.04h.01L24.22,26.75,35.99,15.27a.95674.95674,0,0,1,1.34.02.94475.94475,0,0,1-.02,1.33L29.6,24.14l7.7,7.22A.9481.9481,0,0,1,37.34,32.7Z"/></svg>