<svg xmlns="http://www.w3.org/2000/svg" width="48" height="48" viewBox="0 0 48 48"><title>m-moveup</title><path d="M16.3,30.25v9.4a1.7156,1.7156,0,0,1-1.71,1.71H9.47a1.71355,1.71355,0,0,1-1.7-1.71V30.26a1.69858,1.69858,0,0,1,1.7-1.7H14.59A1.69853,1.69853,0,0,1,16.3,30.25Z"/><path d="M27.82,21.7V39.65a1.71356,1.71356,0,0,1-1.7,1.71H21a1.71566,1.71566,0,0,1-1.71-1.71V21.73A1.69881,1.69881,0,0,1,20.96,20h5.16A1.69859,1.69859,0,0,1,27.82,21.7Z"/><path d="M41.86,14.9H39.35V39.72a1.61566,1.61566,0,0,1-1.58,1.64H32.64a1.82881,1.82881,0,0,1-1.83-1.71V14.9H29c-.94,0-1.19-.57-.56-1.27l5.85-6.47L34.42,7a1.518,1.518,0,0,1,2.14.14l5.86,6.47C43,14.33,42.8,14.9,41.86,14.9Z"/></svg>