<svg xmlns="http://www.w3.org/2000/svg" width="48" height="48" viewBox="0 0 48 48"><title>m-photo</title><path d="M40,15H33.72a1.07912,1.07912,0,0,1-.95-.68l-1.34-4.04A1.07919,1.07919,0,0,0,30.48,9.6H17.52a1.07919,1.07919,0,0,0-.95.68005l-1.34,4.04a1.07912,1.07912,0,0,1-.95.68H8a2.00591,2.00591,0,0,0-2,2V36.4a2.00591,2.00591,0,0,0,2,2H40a2.00591,2.00591,0,0,0,2-2V17A2.00591,2.00591,0,0,0,40,15ZM24,34.8a9,9,0,1,1,9-9A9.00072,9.00072,0,0,1,24,34.8ZM37.14,21.12a1.26,1.26,0,1,1,1.26-1.26A1.26113,1.26113,0,0,1,37.14,21.12Z"/><path d="M29.4,25.8a5.39442,5.39442,0,1,1-1.58-3.82A5.403,5.403,0,0,1,29.4,25.8Z"/></svg>