<svg xmlns="http://www.w3.org/2000/svg" width="48" height="48" viewBox="0 0 48 48"><title>m-ques</title><path d="M41.5,41.15v.2H6.5v-.2a17.73,17.73,0,0,1,.37-2.85A17.52,17.52,0,0,1,16.94,25.89a17.87,17.87,0,0,1,5.49-1.42,24.0003,24.0003,0,0,1,3.13,0A17.52,17.52,0,0,1,41.13,38.3,17.71989,17.71989,0,0,1,41.5,41.15Z"/><path d="M30.75,18.57a10.1801,10.1801,0,0,1-1.58,1.58,8.56,8.56,0,0,1-5.92,1.72,9,9,0,0,1-3.71-1.24,8.79,8.79,0,0,1-2.74-2.74A8.46257,8.46257,0,0,1,28.45,6.24a8.79,8.79,0,0,1,2.74,2.74,9.38,9.38,0,0,1,.85,1.82A8.5,8.5,0,0,1,30.75,18.57Z"/></svg>