<svg xmlns="http://www.w3.org/2000/svg" width="48" height="48" viewBox="0 0 48 48"><title>m-ribbon</title><path d="M11.497,12.66787V35.33213a1,1,0,0,1-.68765.95l-2.997.98541a1,1,0,0,1-1.31235-.95V11.68246a1,1,0,0,1,1.31235-.95l2.997.98541A1,1,0,0,1,11.497,12.66787Z"/><path d="M18.342,11.23879V36.76121a1,1,0,0,1-.68755.94994l-3.202,1.05318A1,1,0,0,1,13.14,37.81438V10.18561a1,1,0,0,1,1.31245-.94994l3.202,1.05318A1,1,0,0,1,18.342,11.23879Z"/><path d="M41.5,13.44255v21.1149a1,1,0,0,1-.75478.96947L21.33722,40.436a1,1,0,0,1-1.24522-.96947V8.53344A1,1,0,0,1,21.33722,7.564l19.408,4.90911A1,1,0,0,1,41.5,13.44255Z"/></svg>