<svg xmlns="http://www.w3.org/2000/svg" width="48" height="48" viewBox="0 0 48 48"><title>m-vip</title><path d="M42,18.6a1.854,1.854,0,0,1-1.33,1.78L38.44,34.69a.98078.98078,0,0,1-.93.78H10.08A.9385.9385,0,0,1,9.15,34.65L6.93,20.2A1.836,1.836,0,0,1,6,18.6a1.861,1.861,0,0,1,1.82-1.89,1.83511,1.83511,0,0,1,1.85,1.83v.02a1.8921,1.8921,0,0,1-.44,1.23l6.89,3.89,6.3-8.79a2.63014,2.63014,0,0,1,1.38-4.85,2.57991,2.57991,0,0,1,2.59,2.57v.02a2.668,2.668,0,0,1-1.26,2.23l5.9,8.78,7.56-4a1.88453,1.88453,0,0,1-.33-1.08,1.83292,1.83292,0,0,1,1.82-1.85h.03A1.9213,1.9213,0,0,1,42,18.6Z"/></svg>