<?xml version="1.0" encoding="utf-8"?>
<!-- Generator: Adobe Illustrator 18.0.0, SVG Export Plug-In . SVG Version: 6.00 Build 0)  -->
<!DOCTYPE svg PUBLIC "-//W3C//DTD SVG 1.1//EN" "http://www.w3.org/Graphics/SVG/1.1/DTD/svg11.dtd">
<svg version="1.1" id="Слой_1" xmlns="http://www.w3.org/2000/svg" xmlns:xlink="http://www.w3.org/1999/xlink" x="0px" y="0px"
	 viewBox="0 0 129.8 263.2" enable-background="new 0 0 129.8 263.2" xml:space="preserve">
<g>
	<rect x="59.2" y="56.2" fill-rule="evenodd" clip-rule="evenodd" fill="#E4AB46" width="11.4" height="207"/>
	<polygon fill-rule="evenodd" clip-rule="evenodd" fill="#816243" points="70.6,56.2 62,64.8 70.6,73.5 62,82.1 70.6,90.7 62,99.3 
		70.6,108 62,116.6 70.6,125.2 62,133.8 70.6,142.5 62,151.1 70.6,159.7 62,168.3 70.6,177 62,185.6 70.6,194.2 62,202.8 
		70.6,211.5 62,220.1 70.6,228.7 62,237.3 70.6,245.9 62,254.6 70.6,263.2 	"/>
	<path fill-rule="evenodd" clip-rule="evenodd" fill="#45654A" d="M95.3,71.8C86.7,63.2,76,58,64.9,56.2c1.8,11.1,7,21.8,15.6,30.3
		c8.6,8.6,19.2,13.8,30.3,15.6C109,91,103.8,80.3,95.3,71.8z"/>
	<path fill-rule="evenodd" clip-rule="evenodd" fill="#5A915C" d="M39.6,79.1c6.1-10.5,15-18.3,25.3-22.9
		c1.1,11.2-1.1,22.8-7.2,33.3c-6.1,10.5-15,18.3-25.3,22.9C31.3,101.2,33.6,89.6,39.6,79.1z"/>
	<path fill-rule="evenodd" clip-rule="evenodd" fill="#8ABE5C" d="M64.9,56.2c1.1,11.2-1.1,22.8-7.2,33.3
		c-6.1,10.5-15,18.3-25.3,22.9L64.9,56.2z"/>
	<path fill-rule="evenodd" clip-rule="evenodd" fill="#8ABE5C" d="M30.9,54.5c11.7-3.1,23.5-2.3,34.1,1.7
		C57.8,64.9,48,71.6,36.3,74.7C24.6,77.8,12.7,77,2.2,73C9.3,64.3,19.2,57.7,30.9,54.5z"/>
	<path fill-rule="evenodd" clip-rule="evenodd" fill="#5A915C" d="M108.2,65.6v-9.4l4.2,8.4c2.3-0.6,4.5-1.4,6.6-2.3v-6.1l2.5,5
		c2.9-1.4,5.7-3.1,8.3-5c-9.1-6.6-20.3-10.4-32.5-10.4c-12.1,0-23.3,3.9-32.5,10.4c3.3,2.4,7,4.5,10.8,6.1v-6.1l3.7,7.5
		c2.3,0.8,4.7,1.4,7.1,1.9v-9.4l5,10.2c1.9,0.2,3.8,0.3,5.8,0.3V56.2l5.1,10.2C104.4,66.3,106.3,66,108.2,65.6z"/>
	<path fill-rule="evenodd" clip-rule="evenodd" fill="#5A915C" d="M21.6,65.6v-9.4l-4.2,8.4c-2.3-0.6-4.5-1.4-6.6-2.3v-6.1l-2.5,5
		c-2.9-1.4-5.7-3.1-8.3-5c9.1-6.6,20.3-10.4,32.5-10.4c12.1,0,23.3,3.9,32.5,10.4c-3.3,2.4-7,4.5-10.8,6.1v-6.1l-3.7,7.5
		c-2.3,0.8-4.7,1.4-7.1,1.9v-9.4l-5,10.2c-1.9,0.2-3.8,0.3-5.8,0.3V56.2l-5.1,10.2C25.4,66.3,23.5,66,21.6,65.6z"/>
	<path fill-rule="evenodd" clip-rule="evenodd" fill="#5A915C" d="M78.4,98.4l8.1-4.7l-5.2,7.8c1.7,1.7,3.5,3.2,5.3,4.6l5.3-3
		l-3.1,4.6c2.7,1.8,5.5,3.4,8.5,4.7c1.1-11.2-1.1-22.8-7.2-33.3c-6.1-10.5-15-18.3-25.3-22.9c-0.4,4.1-0.4,8.3,0.1,12.4l5.3-3
		l-4.6,7c0.5,2.4,1.1,4.8,1.9,7.1l8.1-4.7l-6.3,9.4c0.8,1.7,1.7,3.5,2.6,5.2l9-5.2l-6.3,9.5C76,95.4,77.2,97,78.4,98.4z"/>
	<path fill-rule="evenodd" clip-rule="evenodd" fill="#BBD362" d="M64.9,56.2c10.3,4.6,19.2,12.4,25.3,22.9
		c6.1,10.5,8.3,22.1,7.2,33.3L64.9,56.2z"/>
	<path fill-rule="evenodd" clip-rule="evenodd" fill="#568E5C" d="M27.7,32.3l6.6-6.6l-8.9,3c-1.2-2.1-2.2-4.2-3.1-6.3l4.3-4.3
		l-5.3,1.8c-1.1-3.1-1.9-6.2-2.4-9.4c11.1,1.8,21.8,7,30.3,15.6c8.6,8.6,13.8,19.2,15.6,30.3c-4.1-0.7-8.1-1.8-12-3.3l4.3-4.3
		l-7.9,2.7c-2.2-1.1-4.3-2.3-6.4-3.7l6.6-6.6l-10.7,3.6c-1.5-1.2-2.9-2.5-4.3-3.9l7.4-7.4l-10.8,3.6C29.9,35.4,28.7,33.9,27.7,32.3z
		"/>
	<path fill-rule="evenodd" clip-rule="evenodd" fill="#BBD362" d="M64.9,56.2c-9.1-6.6-20.3-10.4-32.5-10.4
		C20.3,45.8,9.1,49.6,0,56.2L64.9,56.2z"/>
	<path fill-rule="evenodd" clip-rule="evenodd" fill="#5A915C" d="M94.7,23.4l-8.1-4.7l9.4,0.6c0.6-2.3,1-4.6,1.3-6.9l-5.3-3
		l5.5,0.3c0.2-3.2,0.2-6.5-0.1-9.7C87.1,4.6,78.2,12.4,72.1,22.9C66,33.4,63.8,45,64.9,56.2c3.8-1.7,7.3-3.8,10.7-6.3l-5.3-3
		l8.3,0.5c1.8-1.6,3.6-3.3,5.2-5.2l-8.1-4.7L87,38.2c1.1-1.5,2.2-3.2,3.1-4.9l-9-5.2l11.4,0.7C93.4,27,94.1,25.3,94.7,23.4z"/>
	<path fill-rule="evenodd" clip-rule="evenodd" fill="#BBD362" d="M64.9,56.2C63.8,45,66,33.4,72.1,22.9C78.2,12.4,87.1,4.6,97.4,0
		L64.9,56.2z"/>
</g>
</svg>
