<?xml version="1.0" encoding="utf-8"?>
<!-- Generator: Adobe Illustrator 18.0.0, SVG Export Plug-In . SVG Version: 6.00 Build 0)  -->
<!DOCTYPE svg PUBLIC "-//W3C//DTD SVG 1.1//EN" "http://www.w3.org/Graphics/SVG/1.1/DTD/svg11.dtd">
<svg version="1.1" id="Слой_1" xmlns="http://www.w3.org/2000/svg" xmlns:xlink="http://www.w3.org/1999/xlink" x="0px" y="0px"
	 viewBox="0 0 132.1 265.4" enable-background="new 0 0 132.1 265.4" xml:space="preserve">
<g>
	<rect x="59.4" y="64.9" fill-rule="evenodd" clip-rule="evenodd" fill="#E4AB46" width="11" height="200.5"/>
	<polygon fill-rule="evenodd" clip-rule="evenodd" fill="#816243" points="70.4,64.9 62.1,73.3 70.4,81.6 62.1,90 70.4,98.3 
		62.1,106.7 70.4,115 62.1,123.4 70.4,131.7 62.1,140.1 70.4,148.4 62.1,156.8 70.4,165.1 62.1,173.5 70.4,181.8 62.1,190.2 
		70.4,198.5 62.1,206.9 70.4,215.2 62.1,223.6 70.4,232 62.1,240.3 70.4,248.7 62.1,257 70.4,265.4 	"/>
	<path fill-rule="evenodd" clip-rule="evenodd" fill="#45654A" d="M96.3,81c-8.9-8.9-19.9-14.2-31.4-16.1
		c1.9,11.5,7.2,22.5,16.1,31.4c8.9,8.9,19.9,14.2,31.4,16.1C110.6,100.9,105.2,89.9,96.3,81z"/>
	<path fill-rule="evenodd" clip-rule="evenodd" fill="#45654A" d="M38.7,88.6C45,77.7,54.3,69.7,64.9,64.9
		c1.2,11.6-1.2,23.6-7.4,34.5c-6.3,10.9-15.5,18.9-26.2,23.7C30.1,111.5,32.5,99.5,38.7,88.6z"/>
	<path fill-rule="evenodd" clip-rule="evenodd" fill="#8ABE5C" d="M29.7,63.2c12.1-3.2,24.4-2.4,35.3,1.8
		c-7.4,9-17.5,15.9-29.7,19.1C23.1,87.3,10.9,86.4,0,82.3C7.4,73.3,17.5,66.4,29.7,63.2z"/>
	<path fill-rule="evenodd" clip-rule="evenodd" fill="#5A915C" d="M109.7,74.6v-9.7l4.3,8.7c2.4-0.7,4.6-1.5,6.9-2.4v-6.3l2.6,5.1
		c3-1.5,5.9-3.2,8.6-5.1c-9.5-6.8-21.1-10.8-33.6-10.8c-12.5,0-24.1,4-33.6,10.8c3.5,2.5,7.2,4.6,11.2,6.3v-6.3l3.8,7.8
		c2.4,0.8,4.8,1.5,7.4,2v-9.7l5.2,10.5c2,0.2,4,0.3,6,0.3V64.9l5.3,10.6C105.8,75.3,107.8,75,109.7,74.6z"/>
	<path fill-rule="evenodd" clip-rule="evenodd" fill="#5A915C" d="M21.2,50.9l4.9-8.4L18,47.9c-1.7-1.7-3.3-3.6-4.7-5.5l3.1-5.5
		l-4.8,3.2c-1.9-2.8-3.5-5.7-4.9-8.8c11.6-1.2,23.6,1.2,34.5,7.4C52.1,45,60.1,54.3,64.9,64.9c-4.2,0.4-8.6,0.4-12.8-0.1l3.1-5.5
		L48,64.1c-2.5-0.5-4.9-1.1-7.4-2l4.9-8.4l-9.8,6.5c-1.8-0.8-3.6-1.7-5.3-2.7l5.4-9.4L26,54.6C24.3,53.5,22.7,52.2,21.2,50.9z"/>
	<path fill-rule="evenodd" clip-rule="evenodd" fill="#5A915C" d="M78.9,108.6l8.4-4.9l-5.4,8.1c1.7,1.7,3.6,3.3,5.5,4.7l5.5-3.1
		l-3.2,4.8c2.8,1.9,5.7,3.5,8.8,4.9c1.2-11.6-1.2-23.6-7.4-34.5c-6.3-10.9-15.5-18.9-26.2-23.7c-0.4,4.2-0.4,8.6,0.1,12.8l5.5-3.1
		l-4.8,7.2c0.5,2.5,1.1,4.9,2,7.4l8.4-4.9l-6.5,9.8c0.8,1.8,1.7,3.6,2.7,5.3l9.4-5.4l-6.5,9.8C76.3,105.5,77.6,107.1,78.9,108.6z"/>
	<path fill-rule="evenodd" clip-rule="evenodd" fill="#BBD362" d="M64.9,64.9c10.6,4.8,19.9,12.8,26.2,23.7
		c6.3,10.9,8.6,22.9,7.4,34.5L64.9,64.9z"/>
	<path fill-rule="evenodd" clip-rule="evenodd" fill="#568E5C" d="M67.1,19.1l9.4,2.5l-7.3-6.4c1.2-2.1,2.6-4.1,4.1-6l6.1,1.6
		L75.1,7c2.2-2.6,4.6-4.9,7.2-7c4.1,10.9,5,23.1,1.8,35.3c-3.2,12.1-10.1,22.3-19.1,29.7c-1.5-4-2.6-8.2-3.2-12.4l6.1,1.6l-6.5-5.7
		c-0.2-2.5-0.2-5.1,0-7.6l9.4,2.5l-8.8-7.8c0.3-2,0.7-3.9,1.3-5.9l10.4,2.8l-8.9-7.8C65.4,22.7,66.2,20.9,67.1,19.1z"/>
	<path fill-rule="evenodd" clip-rule="evenodd" fill="#BBD362" d="M64.9,64.9C60.1,54.3,52.1,45,41.2,38.7
		c-10.9-6.3-22.9-8.6-34.5-7.4L64.9,64.9z"/>
	<path fill-rule="evenodd" clip-rule="evenodd" fill="#BBD362" d="M108.6,50.9l-4.9-8.4l8.1,5.4c1.7-1.7,3.3-3.6,4.7-5.5l-3.1-5.5
		l4.8,3.2c1.9-2.8,3.5-5.7,4.9-8.8c-11.6-1.2-23.6,1.2-34.5,7.4C77.7,45,69.7,54.3,64.9,64.9c4.2,0.4,8.6,0.4,12.8-0.1l-3.1-5.5
		l7.2,4.8c2.5-0.5,4.9-1.1,7.4-2l-4.9-8.4l9.8,6.5c1.8-0.8,3.6-1.7,5.3-2.7L94,48.1l9.8,6.5C105.5,53.5,107.1,52.2,108.6,50.9z"/>
	<path fill-rule="evenodd" clip-rule="evenodd" fill="#84B75D" d="M64.9,64.9C69.7,54.3,77.7,45,88.6,38.7
		c10.9-6.3,22.9-8.6,34.5-7.4L64.9,64.9z"/>
	<path fill-rule="evenodd" clip-rule="evenodd" fill="#568E5C" d="M31,95.7l-4.9-8.4l0.6,9.7c-2.4,0.6-4.8,1.1-7.1,1.4l-3.1-5.5
		l0.3,5.7c-3.4,0.3-6.7,0.2-10-0.1c4.8-10.6,12.8-19.9,23.7-26.2c10.9-6.3,22.9-8.6,34.5-7.4c-1.8,3.9-3.9,7.6-6.6,11.1l-3.1-5.5
		l0.6,8.6c-1.7,1.9-3.5,3.7-5.4,5.4l-4.9-8.4l0.7,11.7c-1.6,1.2-3.3,2.2-5,3.3l-5.4-9.4l0.7,11.8C34.7,94.3,32.9,95.1,31,95.7z"/>
</g>
</svg>
