<?xml version="1.0" encoding="utf-8"?>
<!-- Generator: Adobe Illustrator 18.0.0, SVG Export Plug-In . SVG Version: 6.00 Build 0)  -->
<!DOCTYPE svg PUBLIC "-//W3C//DTD SVG 1.1//EN" "http://www.w3.org/Graphics/SVG/1.1/DTD/svg11.dtd">
<svg version="1.1" id="Слой_1" xmlns="http://www.w3.org/2000/svg" xmlns:xlink="http://www.w3.org/1999/xlink" x="0px" y="0px"
	 viewBox="0 0 1100.4 527.6" enable-background="new 0 0 1100.4 527.6" xml:space="preserve">
<polygon fill-rule="evenodd" clip-rule="evenodd" fill="#775237" points="1009.1,380.3 1071.2,504.6 946.9,504.6 "/>
<polygon fill-rule="evenodd" clip-rule="evenodd" fill="#474553" points="1009.1,380.3 1071.2,504.6 1009.1,504.6 "/>
<polygon fill-rule="evenodd" clip-rule="evenodd" fill="#8E6340" points="1059.7,444.4 1089.8,504.6 1020,504.6 1048.6,447.4 "/>
<polygon fill-rule="evenodd" clip-rule="evenodd" fill="#474553" points="1059.7,444.4 1089.8,504.6 1054.9,504.6 1054.9,445.7 "/>
<polygon fill-rule="evenodd" clip-rule="evenodd" fill="#B37E57" points="953.4,461.6 974.9,504.6 931.9,504.6 "/>
<polygon fill-rule="evenodd" clip-rule="evenodd" fill="#776B5F" points="953.4,461.6 974.9,504.6 953.4,504.6 "/>
<path fill-rule="evenodd" clip-rule="evenodd" fill="#FFFFFF" d="M899,504.6h-8.8c0-4.9,4-8.9,8.8-8.9c4.9,0,8.8,4,8.8,8.9H899z"/>
<path fill-rule="evenodd" clip-rule="evenodd" fill="#FFFFFF" d="M932.2,504.6h8.9c0-4.9-4-8.9-8.9-8.9c-4.9,0-8.8,4-8.8,8.9H932.2z
	"/>
<path fill-rule="evenodd" clip-rule="evenodd" fill="#FFFFFF" d="M967.6,504.6h8.9c0-4.9-4-8.9-8.9-8.9c-4.9,0-8.8,4-8.8,8.9H967.6z
	"/>
<path fill-rule="evenodd" clip-rule="evenodd" fill="#FFFFFF" d="M949.9,504.6h-8.8c0-4.9,4-8.9,8.8-8.9c4.9,0,8.8,4,8.8,8.9H949.9z
	"/>
<path fill-rule="evenodd" clip-rule="evenodd" fill="#FFFFFF" d="M1038.4,504.6h8.8c0-4.9-4-8.9-8.8-8.9c-4.9,0-8.8,4-8.8,8.9
	H1038.4z"/>
<path fill-rule="evenodd" clip-rule="evenodd" fill="#FFFFFF" d="M1020.7,504.6h-8.9c0-4.9,4-8.9,8.9-8.9c4.9,0,8.8,4,8.8,8.9
	H1020.7z"/>
<path fill-rule="evenodd" clip-rule="evenodd" fill="#FFFFFF" d="M985.3,504.6h-8.8c0-4.9,4-8.9,8.8-8.9c4.9,0,8.8,4,8.8,8.9H985.3z
	"/>
<path fill-rule="evenodd" clip-rule="evenodd" fill="#FFFFFF" d="M1003,504.6h8.9c0-4.9-4-8.9-8.9-8.9c-4.9,0-8.8,4-8.8,8.9H1003z"
	/>
<path fill-rule="evenodd" clip-rule="evenodd" fill="#FFFFFF" d="M1056.1,504.6h-8.9c0-4.9,4-8.9,8.9-8.9c4.9,0,8.8,4,8.8,8.9
	H1056.1z"/>
<path fill-rule="evenodd" clip-rule="evenodd" fill="#FFFFFF" d="M1073.8,504.6h8.9c0-4.9-4-8.9-8.9-8.9c-4.9,0-8.8,4-8.8,8.9
	H1073.8z"/>
<path fill-rule="evenodd" clip-rule="evenodd" fill="#FFFFFF" d="M1091.5,504.6h-8.8c0-4.9,4-8.9,8.8-8.9c4.9,0,8.8,4,8.8,8.9
	H1091.5z"/>
<path fill-rule="evenodd" clip-rule="evenodd" fill="#FFFFFF" d="M605.1,481.5h8.9c0-4.9-4-8.9-8.9-8.9c-4.9,0-8.8,4-8.8,8.9H605.1z
	"/>
<path fill-rule="evenodd" clip-rule="evenodd" fill="#FFFFFF" d="M697.4,481.5h8.8c0-4.9-4-8.9-8.8-8.9c-4.9,0-8.8,4-8.8,8.9H697.4z
	"/>
<path fill-rule="evenodd" clip-rule="evenodd" fill="#FFFFFF" d="M622.8,481.5H614c0-4.9,4-8.9,8.8-8.9c4.9,0,8.8,4,8.8,8.9H622.8z"
	/>
<path fill-rule="evenodd" clip-rule="evenodd" fill="#FFFFFF" d="M715.1,481.5h-8.9c0-4.9,4-8.9,8.9-8.9c4.9,0,8.8,4,8.8,8.9H715.1z
	"/>
<path fill-rule="evenodd" clip-rule="evenodd" fill="#FFFFFF" d="M732.8,481.5h8.9c0-4.9-4-8.9-8.9-8.9c-4.9,0-8.8,4-8.8,8.9H732.8z
	"/>
<path fill-rule="evenodd" clip-rule="evenodd" fill="#FFFFFF" d="M345.8,481.5h8.9c0-4.9-4-8.9-8.9-8.9c-4.9,0-8.8,4-8.8,8.9H345.8z
	"/>
<path fill-rule="evenodd" clip-rule="evenodd" fill="#FFFFFF" d="M214.5,481.5h-8.9c0-4.9,4-8.9,8.9-8.9c4.9,0,8.8,4,8.8,8.9H214.5z
	"/>
<g>
	<path fill-rule="evenodd" clip-rule="evenodd" fill="#FFFFFF" d="M544.6,2.2c0-1.2,1-2.2,2.2-2.2s2.2,1,2.2,2.2c0,4.1,0,8.9,0,13.3
		h-4.4C544.6,11.1,544.6,6.3,544.6,2.2L544.6,2.2z M577.5,30.7c1.2,0,2.2,1,2.2,2.2c0,1.2-1,2.2-2.2,2.2c-4.1,0-8.9,0-13.3,0v-4.4
		C568.6,30.7,573.4,30.7,577.5,30.7L577.5,30.7z M516,35.1c-1.2,0-2.2-1-2.2-2.2c0-1.2,1-2.2,2.2-2.2c4.1,0,8.9,0,13.3,0v4.4
		C524.9,35.1,520.1,35.1,516,35.1L516,35.1z M574.5,46.4c1,0.6,1.4,1.9,0.8,3c-0.6,1-1.9,1.4-3,0.8c-3.6-2.1-7.7-4.5-11.6-6.7
		l2.2-3.8C566.7,41.9,570.9,44.4,574.5,46.4L574.5,46.4z M519,19.4c-1-0.6-1.4-1.9-0.8-3c0.6-1,1.9-1.4,3-0.8
		c3.6,2.1,7.7,4.5,11.6,6.7l-2.2,3.8C526.8,23.9,522.6,21.5,519,19.4L519,19.4z M564,58.5c-2.1-3.6-4.5-7.7-6.7-11.6l-3.8,2.2
		c2.2,3.8,4.6,8,6.7,11.6c0.6,1,1.9,1.4,3,0.8C564.3,60.8,564.6,59.5,564,58.5L564,58.5z M529.5,7.4c2.1,3.6,4.5,7.7,6.7,11.6
		l3.8-2.2c-2.2-3.8-4.6-8-6.7-11.6c-0.6-1-1.9-1.4-3-0.8C529.2,5,528.9,6.3,529.5,7.4L529.5,7.4z M572.3,15.7c1-0.6,2.4-0.2,3,0.8
		c0.6,1,0.2,2.4-0.8,3c-3.6,2.1-7.7,4.5-11.6,6.7l-2.2-3.8C564.6,20.1,568.7,17.7,572.3,15.7L572.3,15.7z M521.2,50.2
		c-1,0.6-2.4,0.2-3-0.8c-0.6-1-0.2-2.4,0.8-3c3.6-2.1,7.7-4.5,11.6-6.7l2.2,3.8C529,45.7,524.8,48.1,521.2,50.2L521.2,50.2z
		 M560.2,5.2c-2.1,3.6-4.5,7.7-6.7,11.6l3.8,2.2c2.2-3.8,4.6-8,6.7-11.6c0.6-1,0.2-2.4-0.8-3C562.2,3.8,560.8,4.2,560.2,5.2
		L560.2,5.2z M533.3,60.6c2.1-3.6,4.5-7.7,6.7-11.6l-3.8-2.2c-2.2,3.8-4.6,8-6.7,11.6c-0.6,1-0.2,2.4,0.8,3
		C531.3,62,532.7,61.7,533.3,60.6L533.3,60.6z M548.9,63.7c0,1.2-1,2.2-2.2,2.2s-2.2-1-2.2-2.2c0-4.1,0-8.9,0-13.3h4.4
		C548.9,54.7,548.9,59.6,548.9,63.7z"/>
	<path fill-rule="evenodd" clip-rule="evenodd" fill="#FFC442" d="M546.8,56.3c12.9,0,23.4-10.5,23.4-23.4
		c0-12.9-10.5-23.4-23.4-23.4c-12.9,0-23.4,10.5-23.4,23.4C523.4,45.8,533.9,56.3,546.8,56.3z"/>
	<path fill-rule="evenodd" clip-rule="evenodd" fill="#FFE46D" d="M546.8,52.2c10.6,0,19.3-8.7,19.3-19.3c0-10.6-8.7-19.3-19.3-19.3
		c-10.6,0-19.3,8.7-19.3,19.3C527.4,43.6,536.1,52.2,546.8,52.2z"/>
</g>
<path fill-rule="evenodd" clip-rule="evenodd" fill="#EFEBE4" d="M724.8,62.1c4.2,0,7.6,3.4,7.6,7.6c0,4.2-3.4,7.6-7.6,7.6
	c-9.5,0-20.9,0-30.4,0c-4.2,0-7.6-3.4-7.6-7.6c0-4.2,3.4-7.6,7.6-7.6c0-8.4,6.8-15.2,15.2-15.2C718,46.9,724.8,53.7,724.8,62.1z"/>
<path fill-rule="evenodd" clip-rule="evenodd" fill="#FFFAF0" d="M887.6,62.1c4.2,0,7.6,3.4,7.6,7.6c0,4.2-3.4,7.6-7.6,7.6
	c-9.5,0-20.9,0-30.4,0c-4.2,0-7.6-3.4-7.6-7.6c0-4.2,3.4-7.6,7.6-7.6c0-8.4,6.8-15.2,15.2-15.2C880.8,46.9,887.6,53.7,887.6,62.1z"
	/>
<path fill-rule="evenodd" clip-rule="evenodd" fill="#E5E0D6" d="M399.1,62.1c4.2,0,7.6,3.4,7.6,7.6c0,4.2-3.4,7.6-7.6,7.6
	c-9.5,0-20.9,0-30.4,0c-4.2,0-7.6-3.4-7.6-7.6c0-4.2,3.4-7.6,7.6-7.6c0-8.4,6.8-15.2,15.2-15.2C392.3,46.9,399.1,53.7,399.1,62.1z"
	/>
<path fill-rule="evenodd" clip-rule="evenodd" fill="#D8D8D8" d="M236.3,62.1c4.2,0,7.6,3.4,7.6,7.6c0,4.2-3.4,7.6-7.6,7.6
	c-9.5,0-20.9,0-30.4,0c-4.2,0-7.6-3.4-7.6-7.6c0-4.2,3.4-7.6,7.6-7.6c0-8.4,6.8-15.2,15.2-15.2C229.5,46.9,236.3,53.7,236.3,62.1z"
	/>
<polygon fill-rule="evenodd" clip-rule="evenodd" fill="#775237" points="92.1,344.6 172.1,504.6 12.1,504.6 "/>
<polygon fill-rule="evenodd" clip-rule="evenodd" fill="#8E6340" points="92.1,344.6 132,424.5 61.6,405.7 "/>
<polygon fill-rule="evenodd" clip-rule="evenodd" fill="#474553" points="92.1,344.6 172.1,504.6 92.1,504.6 "/>
<polygon fill-rule="evenodd" clip-rule="evenodd" fill="#8E6340" points="55.7,410.8 102.6,504.6 8.9,504.6 "/>
<polygon fill-rule="evenodd" clip-rule="evenodd" fill="#776B5F" points="55.7,410.8 102.6,504.6 55.7,504.6 "/>
<polygon fill-rule="evenodd" clip-rule="evenodd" fill="#B37E57" points="172.5,477.3 186.1,504.6 115.4,504.6 134.2,467 "/>
<polygon fill-rule="evenodd" clip-rule="evenodd" fill="#8E6340" points="172.5,477.3 186.1,504.6 150.8,504.6 150.8,471.5 "/>
<path fill-rule="evenodd" clip-rule="evenodd" fill="#FFFFFF" d="M8.9,504.6H0c0-4.9,4-8.9,8.9-8.9c4.9,0,8.8,4,8.8,8.9H8.9z"/>
<path fill-rule="evenodd" clip-rule="evenodd" fill="#FFFFFF" d="M26.5,504.6h8.9c0-4.9-4-8.9-8.9-8.9c-4.9,0-8.8,4-8.8,8.9H26.5z"
	/>
<path fill-rule="evenodd" clip-rule="evenodd" fill="#FFFFFF" d="M61.9,504.6h8.8c0-4.9-4-8.9-8.8-8.9c-4.9,0-8.8,4-8.8,8.9H61.9z"
	/>
<path fill-rule="evenodd" clip-rule="evenodd" fill="#FFFFFF" d="M44.2,504.6h-8.9c0-4.9,4-8.9,8.9-8.9c4.9,0,8.8,4,8.8,8.9H44.2z"
	/>
<path fill-rule="evenodd" clip-rule="evenodd" fill="#FFFFFF" d="M132.7,504.6h8.9c0-4.9-4-8.9-8.9-8.9c-4.9,0-8.8,4-8.8,8.9H132.7z
	"/>
<path fill-rule="evenodd" clip-rule="evenodd" fill="#FFFFFF" d="M115,504.6h-8.8c0-4.9,4-8.9,8.8-8.9c4.9,0,8.8,4,8.8,8.9H115z"/>
<path fill-rule="evenodd" clip-rule="evenodd" fill="#FFFFFF" d="M79.6,504.6h-8.9c0-4.9,4-8.9,8.9-8.9c4.9,0,8.8,4,8.8,8.9H79.6z"
	/>
<path fill-rule="evenodd" clip-rule="evenodd" fill="#FFFFFF" d="M97.3,504.6h8.9c0-4.9-4-8.9-8.9-8.9c-4.9,0-8.8,4-8.8,8.9H97.3z"
	/>
<path fill-rule="evenodd" clip-rule="evenodd" fill="#FFFFFF" d="M150.4,504.6h-8.9c0-4.9,4-8.9,8.9-8.9c4.9,0,8.8,4,8.8,8.9H150.4z
	"/>
<path fill-rule="evenodd" clip-rule="evenodd" fill="#FFFFFF" d="M168.1,504.6h8.9c0-4.9-4-8.9-8.9-8.9c-4.9,0-8.8,4-8.8,8.9H168.1z
	"/>
<path fill-rule="evenodd" clip-rule="evenodd" fill="#FFFFFF" d="M185.8,504.6H177c0-4.9,4-8.9,8.9-8.9c4.9,0,8.8,4,8.8,8.9H185.8z"
	/>
<path fill-rule="evenodd" clip-rule="evenodd" fill="#FFFFFF" d="M147.6,527.6h8.9c0-4.9-4-8.9-8.9-8.9c-4.9,0-8.8,4-8.8,8.9H147.6z
	"/>
<path fill-rule="evenodd" clip-rule="evenodd" fill="#FFFFFF" d="M291.3,527.6h8.9c0-4.9-4-8.9-8.9-8.9c-4.9,0-8.8,4-8.8,8.9H291.3z
	"/>
<path fill-rule="evenodd" clip-rule="evenodd" fill="#FFFFFF" d="M129.9,527.6h-8.9c0-4.9,4-8.9,8.9-8.9c4.9,0,8.8,4,8.8,8.9H129.9z
	"/>
<path fill-rule="evenodd" clip-rule="evenodd" fill="#FFFFFF" d="M673,527.6h8.8c0-4.9-4-8.9-8.8-8.9c-4.9,0-8.8,4-8.8,8.9H673z"/>
<path fill-rule="evenodd" clip-rule="evenodd" fill="#FFFFFF" d="M690.7,527.6h-8.9c0-4.9,4-8.9,8.9-8.9c4.9,0,8.8,4,8.8,8.9H690.7z
	"/>
<path fill-rule="evenodd" clip-rule="evenodd" fill="#FFFFFF" d="M1003.7,527.6h-8.9c0-4.9,4-8.9,8.9-8.9c4.9,0,8.8,4,8.8,8.9
	H1003.7z"/>
<path fill-rule="evenodd" clip-rule="evenodd" fill="#FFFFFF" d="M960.5,527.6h8.9c0-4.9-4-8.9-8.9-8.9c-4.9,0-8.8,4-8.8,8.9H960.5z
	"/>
<path fill-rule="evenodd" clip-rule="evenodd" fill="#FFFFFF" d="M942.8,527.6H934c0-4.9,4-8.9,8.8-8.9c4.9,0,8.8,4,8.8,8.9H942.8z"
	/>
<polygon fill-rule="evenodd" clip-rule="evenodd" fill="#CC7A16" points="431.5,95 583.3,398.6 279.8,398.4 "/>
<polygon fill-rule="evenodd" clip-rule="evenodd" fill="#AE6614" points="576,384 583.3,398.6 279.8,398.4 321.2,315.7 "/>
<polygon fill-rule="evenodd" clip-rule="evenodd" fill="#775237" points="431.5,95 583.3,398.6 431.5,398.6 "/>
<polygon fill-rule="evenodd" clip-rule="evenodd" fill="#665534" points="627.1,284.8 683.9,398.4 389,398.4 467.2,242 "/>
<polygon fill-rule="evenodd" clip-rule="evenodd" fill="#474553" points="627.1,284.8 683.9,398.4 536.5,398.4 536.5,260.5 "/>
<polygon fill-rule="evenodd" clip-rule="evenodd" fill="#B1D86E" points="794.6,398.4 767.6,369.3 740.6,396.3 713.6,369.3 
	686.7,396.3 659.7,369.3 632.7,396.3 605.7,369.3 578.7,396.3 551.7,369.3 524.7,396.3 497.7,369.3 470.7,396.3 443.7,369.3 
	416.7,396.3 389.7,369.3 362.7,396.3 335.7,369.3 308.7,396.3 279.8,398.4 "/>
<polygon fill-rule="evenodd" clip-rule="evenodd" fill="#9CBA39" points="813.9,398.4 794.6,369.3 767.6,396.3 740.6,369.3 
	713.6,396.3 686.7,369.3 659.7,396.3 632.7,369.3 605.7,396.3 578.7,369.3 551.7,396.3 524.7,369.3 497.7,396.3 470.7,369.3 
	443.7,396.3 416.7,369.3 389.7,396.3 362.7,369.3 335.7,396.3 308.7,369.3 279.8,398.4 "/>
<path fill-rule="evenodd" clip-rule="evenodd" fill="#859F31" d="M605.7,398.4h-27v-29.2l27,27V398.4L605.7,398.4z M659.7,398.4h-27
	v-29.2l27,27V398.4L659.7,398.4z M713.6,398.4h-27v-29.2l27,27V398.4L713.6,398.4z M767.6,398.4h-27v-29.2l27,27V398.4L767.6,398.4z
	 M794.6,398.4v-29.2l19.2,29.2H794.6L794.6,398.4z M551.7,398.4h-27v-29.2l27,27V398.4L551.7,398.4z M279.7,398.6L279.7,398.6
	L279.7,398.6z M335.7,398.4h-27v-29.2l27,27V398.4L335.7,398.4z M389.7,398.4h-27v-29.2l27,27V398.4L389.7,398.4z M443.7,398.4h-27
	v-29.2l27,27V398.4L443.7,398.4z M497.7,398.4h-27v-29.2l27,27V398.4z"/>
<polygon fill-rule="evenodd" clip-rule="evenodd" fill="#FFAE01" points="695.2,398.4 706.6,398.4 706.6,191.5 706.6,157 695.2,157 
	695.2,191.5 "/>
<polygon fill-rule="evenodd" clip-rule="evenodd" fill="#8E6340" points="706.6,191.5 698,200.1 706.6,208.7 698,217.3 706.6,226 
	698,234.6 706.6,243.2 698,251.8 706.6,260.5 698,269.1 706.6,277.7 698,286.3 706.6,295 698,303.6 706.6,312.2 698,320.8 
	706.6,329.5 698,338.1 706.6,346.7 698,355.3 706.6,364 698,372.6 706.6,381.2 698,389.8 706.6,398.4 706.6,157 698,165.6 
	706.6,174.2 698,182.8 "/>
<g>
	<path fill-rule="evenodd" clip-rule="evenodd" fill="#D3553C" d="M695,350.9c2.5,9.1,2.8,18.9,0.1,28.6
		c-2.6,9.7-7.7,18.1-14.4,24.7c-2.5-9-2.8-18.9-0.1-28.6C683.2,365.8,688.3,357.4,695,350.9z"/>
	<path fill-rule="evenodd" clip-rule="evenodd" fill="#FF6239" d="M695,350.9c1,3.4,1.6,6.9,1.9,10.5l-9.3,34.7
		c-2,3-4.3,5.7-6.8,8.1c-1-3.4-1.6-6.9-1.9-10.5l9.3-34.7C690.2,356.1,692.5,353.3,695,350.9z"/>
	
		<rect x="691.6" y="356.1" transform="matrix(-0.9659 -0.259 0.259 -0.9659 1267.3231 889.318)" fill-rule="evenodd" clip-rule="evenodd" fill="#FED20E" width="1.3" height="10.1"/>
</g>
<rect x="279.8" y="398.4" fill-rule="evenodd" clip-rule="evenodd" fill="#FFE46D" width="534.1" height="60"/>
<path fill-rule="evenodd" clip-rule="evenodd" fill="#FFC442" d="M805.5,440.6l-5.2-5.2l-5.2,5.2H805.5L805.5,440.6z M788.1,440.6
	l-5.2-5.2l-5.2,5.2H788.1L788.1,440.6z M291.5,440.6l-5.2-5.2l-5.2,5.2H291.5L291.5,440.6z M638.6,440.6l-5.2-5.2l-5.2,5.2H638.6
	L638.6,440.6z M621.2,440.6l-5.2-5.2l-5.2,5.2H621.2z"/>
<path fill-rule="evenodd" clip-rule="evenodd" fill="#FFC442" d="M813.9,398.4h-7.4l5.2,5.2l2.2-2.2V398.4L813.9,398.4z M782,398.4
	h-10.4l5.2,5.2L782,398.4L782,398.4z M764.6,398.4h-10.4l5.2,5.2L764.6,398.4L764.6,398.4z M739.1,398.4h-10.4l5.2,5.2L739.1,398.4
	L739.1,398.4z M694.1,398.4h-10.4l5.2,5.2L694.1,398.4L694.1,398.4z M604.1,398.4h-10.4l5.2,5.2L604.1,398.4L604.1,398.4z
	 M586.7,398.4h-10.4l5.2,5.2L586.7,398.4L586.7,398.4z M464.5,398.4h-10.4l5.2,5.2L464.5,398.4L464.5,398.4z M385.3,398.4h-10.4
	l5.2,5.2L385.3,398.4L385.3,398.4z M364.4,398.4H354l5.2,5.2L364.4,398.4L364.4,398.4z M337,398.4h-10.4l5.2,5.2L337,398.4
	L337,398.4z M319.5,398.4h-10.4l5.2,5.2L319.5,398.4L319.5,398.4z M294,398.4h-10.4l5.2,5.2L294,398.4z"/>
<g>
	<rect x="533.6" y="339.1" fill-rule="evenodd" clip-rule="evenodd" fill="#FFF9CB" width="111.6" height="51.6"/>
	<rect x="533.6" y="339.1" fill-rule="evenodd" clip-rule="evenodd" fill="#FBDF9F" width="111.6" height="21.3"/>
	<polygon fill-rule="evenodd" clip-rule="evenodd" fill="#775237" points="545.8,394.6 545.8,398.4 540.4,398.4 540.4,394.6 
		529.3,394.6 529.3,390.7 649.4,390.7 649.4,394.6 638.3,394.6 638.3,398.4 633,398.4 633,394.6 592,394.6 592,398.4 586.7,398.4 
		586.7,394.6 	"/>
	<rect x="512.6" y="394.6" fill-rule="evenodd" clip-rule="evenodd" fill="#775237" width="16.7" height="3.9"/>
	<g>
		<rect x="555.6" y="356" fill-rule="evenodd" clip-rule="evenodd" fill="#168491" width="14.8" height="17.8"/>
		<polygon fill-rule="evenodd" clip-rule="evenodd" fill="#22C2D8" points="570.4,360.7 570.4,373.8 557.3,373.8 		"/>
		<rect x="608.3" y="356" fill-rule="evenodd" clip-rule="evenodd" fill="#168491" width="14.8" height="17.8"/>
		<polygon fill-rule="evenodd" clip-rule="evenodd" fill="#22C2D8" points="623.1,360.7 623.1,373.8 610,373.8 		"/>
	</g>
	<path fill-rule="evenodd" clip-rule="evenodd" fill="#FF6239" d="M555.6,356h-7.4v17.8h7.4V356L555.6,356z M577.9,356h-7.4v17.8
		h7.4V356z"/>
	<path fill-rule="evenodd" clip-rule="evenodd" fill="#FF6239" d="M608.3,356h-7.4v17.8h7.4V356L608.3,356z M630.5,356h-7.4v17.8
		h7.4V356z"/>
	<path fill-rule="evenodd" clip-rule="evenodd" fill="#FFC442" d="M518.7,304.9h141.4l10.9,10.9h-10.9l10.9,10.9h-10.9l10.9,10.9
		h-10.9l10.9,10.9c-54.4,0-108.7,0-163.1,0l10.9-10.9h-10.9l10.9-10.9h-10.9l10.9-10.9h-10.9L518.7,304.9z"/>
	<path fill-rule="evenodd" clip-rule="evenodd" fill="#FFAE01" d="M562.2,348.4l-10.9-10.9h10.9l-10.9-10.9h10.9l-10.9-10.9h10.9
		l-10.9-10.9h-10.9l-10.9,10.9h10.9l-10.9,10.9h10.9l-10.9,10.9h10.9l-10.9,10.9C540.4,348.4,551.3,348.4,562.2,348.4z"/>
	<polygon fill-rule="evenodd" clip-rule="evenodd" fill="#FF972A" points="562.2,348.4 551.3,337.5 562.2,337.5 551.3,326.6 
		562.2,326.6 551.3,315.8 562.2,315.8 551.3,304.9 545.9,304.9 545.9,348.4 	"/>
	<path fill-rule="evenodd" clip-rule="evenodd" fill="#FF972A" d="M605.7,348.4l-10.9-10.9h10.9l-10.9-10.9h10.9l-10.9-10.9h10.9
		l-10.9-10.9h-10.9l-10.9,10.9h10.9l-10.9,10.9h10.9l-10.9,10.9h10.9l-10.9,10.9C583.9,348.4,594.8,348.4,605.7,348.4z"/>
	<polygon fill-rule="evenodd" clip-rule="evenodd" fill="#FE871D" points="605.7,348.4 594.8,337.5 605.7,337.5 594.8,326.6 
		605.7,326.6 594.8,315.8 605.7,315.8 594.8,304.9 589.4,304.9 589.4,348.4 	"/>
	<path fill-rule="evenodd" clip-rule="evenodd" fill="#FFAE01" d="M649.2,348.4l-10.9-10.9h10.9l-10.9-10.9h10.9l-10.9-10.9h10.9
		l-10.9-10.9h-10.9l-10.9,10.9h10.9l-10.9,10.9h10.9l-10.9,10.9h10.9l-10.9,10.9C627.4,348.4,638.3,348.4,649.2,348.4z"/>
	<polygon fill-rule="evenodd" clip-rule="evenodd" fill="#FE871D" points="649.2,348.4 638.3,337.5 649.2,337.5 638.3,326.6 
		649.2,326.6 638.3,315.8 649.2,315.8 638.3,304.9 632.9,304.9 632.9,348.4 	"/>
	<path fill-rule="evenodd" clip-rule="evenodd" fill="#775237" d="M545.9,303.6c0.7,0,1.3,0.6,1.3,1.3c0,0.7,0,42.8,0,43.5
		c0,0.7-0.6,1.3-1.3,1.3c-0.7,0-1.3-0.6-1.3-1.3c0-0.7,0-42.8,0-43.5C544.6,304.2,545.2,303.6,545.9,303.6z"/>
	<path fill-rule="evenodd" clip-rule="evenodd" fill="#775237" d="M589.4,303.6c0.7,0,1.3,0.6,1.3,1.3c0,0.7,0,42.8,0,43.5
		c0,0.7-0.6,1.3-1.3,1.3s-1.3-0.6-1.3-1.3c0-0.7,0-42.8,0-43.5C588.1,304.2,588.7,303.6,589.4,303.6z"/>
	<path fill-rule="evenodd" clip-rule="evenodd" fill="#775237" d="M632.9,303.6c0.7,0,1.3,0.6,1.3,1.3c0,0.7,0,42.8,0,43.5
		c0,0.7-0.6,1.3-1.3,1.3s-1.3-0.6-1.3-1.3c0-0.7,0-42.8,0-43.5C631.6,304.2,632.2,303.6,632.9,303.6z"/>
</g>
<g>
	<path fill-rule="evenodd" clip-rule="evenodd" fill="#006738" d="M731.3,172.5c-8.6-8.6-19.2-13.8-30.3-15.6
		c1.8,11.1,7,21.8,15.6,30.3c8.6,8.6,19.2,13.8,30.3,15.6C745,191.8,739.8,181.1,731.3,172.5z"/>
	<path fill-rule="evenodd" clip-rule="evenodd" fill="#219851" d="M675.6,179.9c6.1-10.5,15-18.3,25.3-22.9
		c1.1,11.2-1.1,22.8-7.2,33.3c-6.1,10.5-15,18.3-25.3,22.9C667.3,202,669.6,190.4,675.6,179.9z"/>
	<path fill-rule="evenodd" clip-rule="evenodd" fill="#65CA30" d="M700.9,157c1.1,11.2-1.1,22.8-7.2,33.3
		c-6.1,10.5-15,18.3-25.3,22.9L700.9,157z"/>
	<path fill-rule="evenodd" clip-rule="evenodd" fill="#006738" d="M668.5,146.5c12.1,0,23.3,3.9,32.5,10.4
		c-9.1,6.6-20.3,10.4-32.5,10.4c-12.1,0-23.3-3.9-32.5-10.4C645.1,150.4,656.3,146.5,668.5,146.5z"/>
	<path fill-rule="evenodd" clip-rule="evenodd" fill="#219851" d="M740.3,177.3l2.4-9.1l1.9,9.2c2.4,0,4.7-0.2,7-0.5l1.6-5.9
		l1.1,5.4c3.2-0.6,6.3-1.5,9.3-2.6c-7.1-8.7-16.9-15.4-28.6-18.5c-11.7-3.1-23.5-2.3-34.1,1.7c2.6,3.2,5.6,6.1,8.9,8.7l1.6-5.9
		l1.6,8.2c2,1.4,4.2,2.6,6.4,3.7l2.4-9.1l2.2,11.1c1.8,0.7,3.6,1.3,5.5,1.8l2.7-10.1l2.3,11.2C736.5,176.9,738.4,177.1,740.3,177.3z
		"/>
	<path fill-rule="evenodd" clip-rule="evenodd" fill="#65CA30" d="M656.7,154.9l2.4-9.1l-6.2,7c-2-1.2-4-2.5-5.8-4l1.6-5.9l-3.7,4.2
		c-2.5-2.1-4.7-4.5-6.8-7c10.5-4,22.4-4.8,34.1-1.7c11.7,3.1,21.5,9.8,28.6,18.5c-3.9,1.5-7.9,2.5-12,3.1l1.6-5.9l-5.5,6.3
		c-2.4,0.2-4.9,0.2-7.4,0l2.4-9.1l-7.5,8.5c-1.9-0.3-3.8-0.7-5.7-1.2l2.7-10.1l-7.6,8.6C660.2,156.5,658.4,155.7,656.7,154.9z"/>
	<path fill-rule="evenodd" clip-rule="evenodd" fill="#219851" d="M703,201.2l9.1-2.4l-7,6.2c1.2,2,2.5,4,4,5.8l5.9-1.6l-4.2,3.7
		c2.1,2.5,4.5,4.7,7,6.8c4-10.5,4.8-22.4,1.7-34.1c-3.1-11.7-9.8-21.5-18.5-28.6c-1.5,3.9-2.5,7.9-3.1,12l5.9-1.6l-6.3,5.5
		c-0.2,2.4-0.2,4.9,0,7.4l9.1-2.4l-8.5,7.5c0.3,1.9,0.7,3.8,1.2,5.7l10.1-2.7l-8.6,7.6C701.4,197.7,702.2,199.5,703,201.2z"/>
	<path fill-rule="evenodd" clip-rule="evenodd" fill="#B5E543" d="M700.9,157c8.7,7.1,15.4,16.9,18.5,28.6
		c3.1,11.7,2.3,23.5-1.7,34.1L700.9,157z"/>
	<path fill-rule="evenodd" clip-rule="evenodd" fill="#019444" d="M671.1,124.2l8.1-4.7l-9.4,0.6c-0.6-2.3-1-4.6-1.3-6.9l5.3-3
		l-5.5,0.3c-0.2-3.2-0.2-6.5,0.1-9.7c10.3,4.6,19.2,12.4,25.3,22.9c6.1,10.5,8.3,22.1,7.2,33.3c-3.8-1.7-7.3-3.8-10.7-6.3l5.3-3
		l-8.3,0.5c-1.8-1.6-3.6-3.3-5.2-5.2l8.1-4.7l-11.3,0.7c-1.1-1.5-2.2-3.2-3.1-4.9l9-5.2l-11.4,0.7
		C672.5,127.8,671.8,126,671.1,124.2z"/>
	<path fill-rule="evenodd" clip-rule="evenodd" fill="#B5E543" d="M700.9,157c1.1-11.2-1.1-22.8-7.2-33.3
		c-6.1-10.5-15-18.3-25.3-22.9L700.9,157z"/>
	<path fill-rule="evenodd" clip-rule="evenodd" fill="#B5E543" d="M743.1,143.5l-4.7-8.1l7.8,5.2c1.7-1.7,3.2-3.5,4.6-5.3l-3-5.3
		l4.6,3.1c1.8-2.7,3.4-5.5,4.7-8.5c-11.2-1.1-22.8,1.1-33.3,7.2c-10.5,6.1-18.3,15-22.9,25.3c4.1,0.4,8.3,0.4,12.4-0.1l-3-5.3l7,4.6
		c2.4-0.5,4.8-1.1,7.1-1.9l-4.7-8.1l9.4,6.3c1.7-0.8,3.5-1.7,5.2-2.6l-5.2-9l9.5,6.3C740.1,145.9,741.7,144.7,743.1,143.5z"/>
	<path fill-rule="evenodd" clip-rule="evenodd" fill="#63C03C" d="M700.9,157c4.6-10.3,12.4-19.2,22.9-25.3
		c10.5-6.1,22.1-8.3,33.3-7.2L700.9,157z"/>
</g>
<g>
	<rect x="279.8" y="198" fill-rule="evenodd" clip-rule="evenodd" fill="#FFAE01" width="11" height="200.5"/>
	<polygon fill-rule="evenodd" clip-rule="evenodd" fill="#8E6340" points="290.8,198 282.5,206.3 290.8,214.7 282.5,223.1 
		290.8,231.4 282.5,239.8 290.8,248.1 282.5,256.5 290.8,264.8 282.5,273.2 290.8,281.5 282.5,289.9 290.8,298.2 282.5,306.6 
		290.8,314.9 282.5,323.3 290.8,331.6 282.5,340 290.8,348.3 282.5,356.7 290.8,365 282.5,373.4 290.8,381.7 282.5,390.1 
		290.8,398.4 	"/>
	<path fill-rule="evenodd" clip-rule="evenodd" fill="#006738" d="M316.7,214.1c-8.9-8.9-19.9-14.2-31.4-16.1
		c1.9,11.5,7.2,22.5,16.1,31.4c8.9,8.9,19.9,14.2,31.4,16.1C331,234,325.6,223,316.7,214.1z"/>
	<path fill-rule="evenodd" clip-rule="evenodd" fill="#006738" d="M259.1,221.7c6.3-10.9,15.5-18.9,26.2-23.7
		c1.2,11.6-1.2,23.6-7.4,34.5c-6.3,10.9-15.5,18.9-26.2,23.7C250.5,244.6,252.9,232.5,259.1,221.7z"/>
	<path fill-rule="evenodd" clip-rule="evenodd" fill="#65CA30" d="M250.1,196.2c12.1-3.2,24.4-2.4,35.3,1.8
		c-7.4,9-17.5,15.9-29.7,19.1c-12.1,3.2-24.4,2.4-35.3-1.8C227.8,206.4,237.9,199.5,250.1,196.2z"/>
	<path fill-rule="evenodd" clip-rule="evenodd" fill="#219851" d="M330.1,207.7V198l4.3,8.7c2.4-0.7,4.6-1.5,6.9-2.4V198l2.6,5.1
		c3-1.5,5.9-3.2,8.6-5.1c-9.5-6.8-21.1-10.8-33.6-10.8c-12.5,0-24.1,4-33.6,10.8c3.5,2.5,7.2,4.6,11.2,6.3V198l3.8,7.8
		c2.4,0.8,4.8,1.5,7.4,2V198l5.2,10.5c2,0.2,4,0.3,6,0.3V198l5.3,10.6C326.2,208.4,328.2,208.1,330.1,207.7z"/>
	<path fill-rule="evenodd" clip-rule="evenodd" fill="#219851" d="M241.6,184l4.9-8.4l-8.1,5.4c-1.7-1.7-3.3-3.6-4.7-5.5l3.1-5.5
		l-4.8,3.2c-1.9-2.8-3.5-5.7-4.9-8.8c11.6-1.2,23.6,1.2,34.5,7.4c10.9,6.3,18.9,15.5,23.7,26.2c-4.2,0.4-8.6,0.4-12.8-0.1l3.1-5.5
		l-7.2,4.8c-2.5-0.5-4.9-1.1-7.4-2l4.9-8.4l-9.8,6.5c-1.8-0.8-3.6-1.7-5.3-2.7l5.4-9.4l-9.8,6.5C244.7,186.6,243.1,185.3,241.6,184z
		"/>
	<path fill-rule="evenodd" clip-rule="evenodd" fill="#219851" d="M299.3,241.7l8.4-4.9l-5.4,8.1c1.7,1.7,3.6,3.3,5.5,4.7l5.5-3.1
		l-3.2,4.8c2.8,1.9,5.7,3.5,8.8,4.9c1.2-11.6-1.2-23.6-7.4-34.5c-6.3-10.9-15.5-18.9-26.2-23.7c-0.4,4.2-0.4,8.6,0.1,12.8l5.5-3.1
		l-4.8,7.2c0.5,2.5,1.1,4.9,2,7.4l8.4-4.9l-6.5,9.8c0.8,1.8,1.7,3.6,2.7,5.3l9.4-5.4l-6.5,9.8C296.7,238.6,298,240.2,299.3,241.7z"
		/>
	<path fill-rule="evenodd" clip-rule="evenodd" fill="#B5E543" d="M285.3,198c10.6,4.8,19.9,12.8,26.2,23.7
		c6.3,10.9,8.6,22.9,7.4,34.5L285.3,198z"/>
	<path fill-rule="evenodd" clip-rule="evenodd" fill="#019444" d="M287.5,152.2l9.4,2.5l-7.3-6.4c1.2-2.1,2.6-4.1,4.1-6l6.1,1.6
		l-4.3-3.8c2.2-2.6,4.6-4.9,7.2-7c4.1,10.9,5,23.1,1.8,35.3c-3.2,12.1-10.1,22.3-19.1,29.7c-1.5-4-2.6-8.2-3.2-12.4l6.1,1.6
		l-6.5-5.7c-0.2-2.5-0.2-5.1,0-7.6l9.4,2.5l-8.8-7.8c0.3-2,0.7-3.9,1.3-5.9l10.4,2.8l-8.9-7.8C285.8,155.8,286.6,154,287.5,152.2z"
		/>
	<path fill-rule="evenodd" clip-rule="evenodd" fill="#B5E543" d="M285.3,198c-4.8-10.6-12.8-19.9-23.7-26.2
		c-10.9-6.3-22.9-8.6-34.5-7.4L285.3,198z"/>
	<path fill-rule="evenodd" clip-rule="evenodd" fill="#B5E543" d="M329,184l-4.9-8.4l8.1,5.4c1.7-1.7,3.3-3.6,4.7-5.5l-3.1-5.5
		l4.8,3.2c1.9-2.8,3.5-5.7,4.9-8.8c-11.6-1.2-23.6,1.2-34.5,7.4c-10.9,6.3-18.9,15.5-23.7,26.2c4.2,0.4,8.6,0.4,12.8-0.1l-3.1-5.5
		l7.2,4.8c2.5-0.5,4.9-1.1,7.4-2l-4.9-8.4l9.8,6.5c1.8-0.8,3.6-1.7,5.3-2.7l-5.4-9.4l9.8,6.5C325.9,186.6,327.5,185.3,329,184z"/>
	<path fill-rule="evenodd" clip-rule="evenodd" fill="#63C03C" d="M285.3,198c4.8-10.6,12.8-19.9,23.7-26.2
		c10.9-6.3,22.9-8.6,34.5-7.4L285.3,198z"/>
	<path fill-rule="evenodd" clip-rule="evenodd" fill="#019444" d="M251.4,228.8l-4.9-8.4l0.6,9.7c-2.4,0.6-4.8,1.1-7.1,1.4l-3.1-5.5
		l0.3,5.7c-3.4,0.3-6.7,0.2-10-0.1c4.8-10.6,12.8-19.9,23.7-26.2c10.9-6.3,22.9-8.6,34.5-7.4c-1.8,3.9-3.9,7.6-6.6,11.1l-3.1-5.5
		l0.6,8.6c-1.7,1.9-3.5,3.7-5.4,5.4l-4.9-8.4l0.7,11.7c-1.6,1.2-3.3,2.2-5,3.3l-5.4-9.4l0.7,11.8
		C255.1,227.4,253.3,228.2,251.4,228.8z"/>
</g>
<g>
	<rect x="802.5" y="191.5" fill-rule="evenodd" clip-rule="evenodd" fill="#FFAE01" width="11.4" height="207"/>
	<polygon fill-rule="evenodd" clip-rule="evenodd" fill="#8E6340" points="813.9,191.5 805.3,200.1 813.9,208.7 805.3,217.3 
		813.9,226 805.3,234.6 813.9,243.2 805.3,251.8 813.9,260.5 805.3,269.1 813.9,277.7 805.3,286.3 813.9,295 805.3,303.6 
		813.9,312.2 805.3,320.8 813.9,329.5 805.3,338.1 813.9,346.7 805.3,355.3 813.9,364 805.3,372.6 813.9,381.2 805.3,389.8 
		813.9,398.4 	"/>
	<path fill-rule="evenodd" clip-rule="evenodd" fill="#006738" d="M838.5,207c-8.6-8.6-19.2-13.8-30.3-15.6
		c1.8,11.1,7,21.8,15.6,30.3c8.6,8.6,19.2,13.8,30.3,15.6C852.3,226.3,847.1,215.6,838.5,207z"/>
	<path fill-rule="evenodd" clip-rule="evenodd" fill="#219851" d="M782.9,214.4c6.1-10.5,15-18.3,25.3-22.9
		c1.1,11.2-1.1,22.8-7.2,33.3c-6.1,10.5-15,18.3-25.3,22.9C774.6,236.5,776.9,224.8,782.9,214.4z"/>
	<path fill-rule="evenodd" clip-rule="evenodd" fill="#65CA30" d="M808.2,191.5c1.1,11.2-1.1,22.8-7.2,33.3
		c-6.1,10.5-15,18.3-25.3,22.9L808.2,191.5z"/>
	<path fill-rule="evenodd" clip-rule="evenodd" fill="#65CA30" d="M774.1,189.8c11.7-3.1,23.5-2.3,34.1,1.7
		c-7.1,8.7-16.9,15.4-28.6,18.5c-11.7,3.1-23.5,2.3-34.1-1.7C752.6,199.6,762.4,192.9,774.1,189.8z"/>
	<path fill-rule="evenodd" clip-rule="evenodd" fill="#219851" d="M851.5,200.9v-9.4l4.2,8.4c2.3-0.6,4.5-1.4,6.6-2.3v-6.1l2.5,5
		c2.9-1.4,5.7-3.1,8.3-5c-9.1-6.6-20.3-10.4-32.5-10.4c-12.1,0-23.3,3.9-32.5,10.4c3.3,2.4,7,4.5,10.8,6.1v-6.1l3.7,7.5
		c2.3,0.8,4.7,1.4,7.1,1.9v-9.4l5,10.2c1.9,0.2,3.8,0.3,5.8,0.3v-10.4l5.1,10.2C847.7,201.5,849.6,201.2,851.5,200.9z"/>
	<path fill-rule="evenodd" clip-rule="evenodd" fill="#219851" d="M764.9,200.9v-9.4l-4.2,8.4c-2.3-0.6-4.5-1.4-6.6-2.3v-6.1l-2.5,5
		c-2.9-1.4-5.7-3.1-8.3-5c9.1-6.6,20.3-10.4,32.5-10.4c12.1,0,23.3,3.9,32.5,10.4c-3.3,2.4-7,4.5-10.8,6.1v-6.1l-3.7,7.5
		c-2.3,0.8-4.7,1.4-7.1,1.9v-9.4l-5,10.2c-1.9,0.2-3.8,0.3-5.8,0.3v-10.4l-5.1,10.2C768.7,201.5,766.8,201.2,764.9,200.9z"/>
	<path fill-rule="evenodd" clip-rule="evenodd" fill="#219851" d="M821.7,233.7l8.1-4.7l-5.2,7.8c1.7,1.7,3.5,3.2,5.3,4.6l5.3-3
		l-3.1,4.6c2.7,1.8,5.5,3.4,8.5,4.7c1.1-11.2-1.1-22.8-7.2-33.3c-6.1-10.5-15-18.3-25.3-22.9c-0.4,4.1-0.4,8.3,0.1,12.4l5.3-3
		l-4.6,7c0.5,2.4,1.1,4.8,1.9,7.1l8.1-4.7l-6.3,9.4c0.8,1.7,1.7,3.5,2.6,5.2l9-5.2l-6.3,9.5C819.2,230.7,820.4,232.2,821.7,233.7z"
		/>
	<path fill-rule="evenodd" clip-rule="evenodd" fill="#B5E543" d="M808.2,191.5c10.3,4.6,19.2,12.4,25.3,22.9
		c6.1,10.5,8.3,22.1,7.2,33.3L808.2,191.5z"/>
	<path fill-rule="evenodd" clip-rule="evenodd" fill="#019444" d="M770.9,167.5l6.6-6.6l-8.9,3c-1.2-2.1-2.2-4.2-3.1-6.3l4.3-4.3
		l-5.3,1.8c-1.1-3.1-1.9-6.2-2.4-9.4c11.1,1.8,21.8,7,30.3,15.6c8.6,8.6,13.8,19.2,15.6,30.3c-4.1-0.7-8.1-1.8-12-3.3l4.3-4.3
		l-7.9,2.7c-2.2-1.1-4.3-2.3-6.4-3.7l6.6-6.6l-10.7,3.6c-1.5-1.2-2.9-2.5-4.3-3.9l7.4-7.4l-10.8,3.6
		C773.2,170.7,772,169.1,770.9,167.5z"/>
	<path fill-rule="evenodd" clip-rule="evenodd" fill="#B5E543" d="M808.2,191.5c-9.1-6.6-20.3-10.4-32.5-10.4
		c-12.1,0-23.3,3.9-32.5,10.4L808.2,191.5z"/>
	<path fill-rule="evenodd" clip-rule="evenodd" fill="#219851" d="M838,158.7l-8.1-4.7l9.4,0.6c0.6-2.3,1-4.6,1.3-6.9l-5.3-3
		l5.5,0.3c0.2-3.2,0.2-6.5-0.1-9.7c-10.3,4.6-19.2,12.4-25.3,22.9c-6.1,10.5-8.3,22.1-7.2,33.3c3.8-1.7,7.3-3.8,10.7-6.3l-5.3-3
		l8.3,0.5c1.8-1.6,3.6-3.3,5.2-5.2l-8.1-4.7l11.3,0.7c1.1-1.5,2.2-3.2,3.1-4.9l-9-5.2l11.4,0.7C836.6,162.3,837.3,160.5,838,158.7z"
		/>
	<path fill-rule="evenodd" clip-rule="evenodd" fill="#B5E543" d="M808.2,191.5c-1.1-11.2,1.1-22.8,7.2-33.3
		c6.1-10.5,15-18.3,25.3-22.9L808.2,191.5z"/>
</g>
<g>
	<path fill-rule="evenodd" clip-rule="evenodd" fill="#FFFFFF" d="M703.7,378.3c5.2-3,11.8-1.2,14.8,4c3,5.2,1.2,11.8-4,14.8
		c-5.2,3-11.8,1.2-14.8-4C696.7,387.9,698.5,381.3,703.7,378.3L703.7,378.3z M706.1,382.4c-2.9,1.7-3.9,5.4-2.2,8.2
		c1.7,2.9,5.4,3.9,8.2,2.2c2.9-1.7,3.9-5.4,2.2-8.2C712.6,381.7,708.9,380.8,706.1,382.4z"/>
	<path fill-rule="evenodd" clip-rule="evenodd" fill="#FFCB97" d="M704.9,380.3c4-2.3,9.2-0.9,11.5,3.1c2.3,4,0.9,9.2-3.1,11.5
		c-4,2.3-9.2,0.9-11.5-3.1C699.4,387.8,700.8,382.7,704.9,380.3L704.9,380.3z M706.1,382.4c-2.9,1.7-3.9,5.4-2.2,8.2
		c1.7,2.9,5.4,3.9,8.2,2.2c2.9-1.7,3.9-5.4,2.2-8.2C712.6,381.7,708.9,380.8,706.1,382.4z"/>
	<path fill-rule="evenodd" clip-rule="evenodd" fill="#FF6239" d="M703.7,378.3c5.2-3,11.8-1.2,14.8,4l-4.1,2.4
		c-1.7-2.9-5.4-3.9-8.2-2.2L703.7,378.3L703.7,378.3z M714.5,397c-5.2,3-11.8,1.2-14.8-4l4.1-2.4c1.7,2.9,5.4,3.9,8.2,2.2L714.5,397
		z"/>
	<path fill-rule="evenodd" clip-rule="evenodd" fill="#D3553C" d="M716.4,383.4l-2.1,1.2c-1.7-2.9-5.4-3.9-8.2-2.2l-1.2-2.1
		C708.9,378,714,379.4,716.4,383.4L716.4,383.4z M713.3,395c-4,2.3-9.2,0.9-11.5-3.1l2.1-1.2c1.7,2.9,5.4,3.9,8.2,2.2L713.3,395z"/>
</g>
<path fill-rule="evenodd" clip-rule="evenodd" fill="#FFFFFF" d="M460.9,458.5h8.9c0-4.9-4-8.9-8.9-8.9c-4.9,0-8.8,4-8.8,8.9H460.9z
	"/>
<path fill-rule="evenodd" clip-rule="evenodd" fill="#FFFFFF" d="M514,458.5h8.9c0-4.9-4-8.9-8.9-8.9c-4.9,0-8.8,4-8.8,8.9H514z"/>
<path fill-rule="evenodd" clip-rule="evenodd" fill="#FFFFFF" d="M279.9,458.5h-8.8c0-4.9,4-8.9,8.8-8.9c4.9,0,8.8,4,8.8,8.9H279.9z
	"/>
<g>
	<path fill-rule="evenodd" clip-rule="evenodd" fill="#0D8B27" d="M740.6,398.4h12.3c0-6.8-5.5-12.3-12.3-12.3
		c-6.8,0-12.3,5.5-12.3,12.3H740.6z"/>
	<polygon fill-rule="evenodd" clip-rule="evenodd" fill="#FED20E" points="740.6,382.4 743.1,386.1 746.8,383.7 747.6,388 
		752,387.1 740.6,398.4 729.3,387.1 733.7,388 734.5,383.7 738.2,386.1 	"/>
	<polygon fill-rule="evenodd" clip-rule="evenodd" fill="#FFAE01" points="740.6,398.4 729.3,387.1 733.7,388 734.5,383.7 
		738.2,386.1 740.6,382.4 	"/>
	<path fill-rule="evenodd" clip-rule="evenodd" fill="#E7465F" d="M740.6,398.4l7.4-7.4c-4.1-4.1-10.7-4.1-14.8,0L740.6,398.4z"/>
	<path fill-rule="evenodd" clip-rule="evenodd" fill="#C82C40" d="M740.6,398.4l7.4-7.4c-2-2-4.7-3.1-7.4-3.1V398.4z"/>
	<path fill-rule="evenodd" clip-rule="evenodd" fill="#FED20E" d="M740.6,398.4l2.7-2.7c-1.5-1.5-3.9-1.5-5.4,0L740.6,398.4z"/>
	<polygon fill-rule="evenodd" clip-rule="evenodd" fill="#006738" points="744.1,398.4 740.6,398.4 752,387.1 	"/>
	<polygon fill-rule="evenodd" clip-rule="evenodd" fill="#006738" points="737.2,398.4 740.6,398.4 729.3,387.1 	"/>
</g>
<g>
	<path fill-rule="evenodd" clip-rule="evenodd" fill="#0D8B27" d="M767.6,398.4h12.3c0-6.8-5.5-12.3-12.3-12.3
		c-6.8,0-12.3,5.5-12.3,12.3H767.6z"/>
	<polygon fill-rule="evenodd" clip-rule="evenodd" fill="#FED20E" points="767.6,382.4 770.1,386.1 773.8,383.7 774.6,388 
		779,387.1 767.6,398.4 756.3,387.1 760.7,388 761.5,383.7 765.2,386.1 	"/>
	<polygon fill-rule="evenodd" clip-rule="evenodd" fill="#FFAE01" points="767.6,398.4 756.3,387.1 760.7,388 761.5,383.7 
		765.2,386.1 767.6,382.4 	"/>
	<path fill-rule="evenodd" clip-rule="evenodd" fill="#E7465F" d="M767.6,398.4l7.4-7.4c-4.1-4.1-10.7-4.1-14.8,0L767.6,398.4z"/>
	<path fill-rule="evenodd" clip-rule="evenodd" fill="#C82C40" d="M767.6,398.4l7.4-7.4c-2-2-4.7-3.1-7.4-3.1V398.4z"/>
	<path fill-rule="evenodd" clip-rule="evenodd" fill="#FED20E" d="M767.6,398.4l2.7-2.7c-1.5-1.5-3.9-1.5-5.4,0L767.6,398.4z"/>
	<polygon fill-rule="evenodd" clip-rule="evenodd" fill="#006738" points="771.1,398.4 767.6,398.4 779,387.1 	"/>
	<polygon fill-rule="evenodd" clip-rule="evenodd" fill="#006738" points="764.2,398.4 767.6,398.4 756.3,387.1 	"/>
</g>
<g>
	<path fill-rule="evenodd" clip-rule="evenodd" fill="#0D8B27" d="M416.7,398.4h12.3c0-6.8-5.5-12.3-12.3-12.3
		c-6.8,0-12.3,5.5-12.3,12.3H416.7z"/>
	<polygon fill-rule="evenodd" clip-rule="evenodd" fill="#FED20E" points="416.7,382.4 419.1,386.1 422.8,383.7 423.7,388 
		428,387.1 416.7,398.4 405.4,387.1 409.7,388 410.6,383.7 414.2,386.1 	"/>
	<polygon fill-rule="evenodd" clip-rule="evenodd" fill="#FFAE01" points="416.7,398.4 405.4,387.1 409.7,388 410.6,383.7 
		414.2,386.1 416.7,382.4 	"/>
	<path fill-rule="evenodd" clip-rule="evenodd" fill="#E7465F" d="M416.7,398.4l7.4-7.4c-4.1-4.1-10.7-4.1-14.8,0L416.7,398.4z"/>
	<path fill-rule="evenodd" clip-rule="evenodd" fill="#C82C40" d="M416.7,398.4l7.4-7.4c-2-2-4.7-3.1-7.4-3.1V398.4z"/>
	<path fill-rule="evenodd" clip-rule="evenodd" fill="#FED20E" d="M416.7,398.4l2.7-2.7c-1.5-1.5-3.9-1.5-5.4,0L416.7,398.4z"/>
	<polygon fill-rule="evenodd" clip-rule="evenodd" fill="#006738" points="420.1,398.4 416.7,398.4 428,387.1 	"/>
	<polygon fill-rule="evenodd" clip-rule="evenodd" fill="#006738" points="413.2,398.4 416.7,398.4 405.4,387.1 	"/>
</g>
<path fill-rule="evenodd" clip-rule="evenodd" fill="#4D5F8D" d="M448.5,481.5h23c0-15.6-12.6-28.2-28.2-28.2
	C448.2,461.7,449.3,472.9,448.5,481.5z"/>
<path fill-rule="evenodd" clip-rule="evenodd" fill="#FFFFFF" d="M438,481.5h8.9c0-4.9-4-8.9-8.9-8.9c-4.9,0-8.8,4-8.8,8.9H438z"/>
<path fill-rule="evenodd" clip-rule="evenodd" fill="#FFFFFF" d="M510.5,481.5h-8.9c0-4.9,4-8.9,8.9-8.9c4.9,0,8.8,4,8.8,8.9H510.5z
	"/>
<path fill-rule="evenodd" clip-rule="evenodd" fill="#FFFFFF" d="M455.7,481.5h-8.9c0-4.9,4-8.9,8.9-8.9c4.9,0,8.8,4,8.8,8.9H455.7z
	"/>
<path fill-rule="evenodd" clip-rule="evenodd" fill="#FFFFFF" d="M473.4,481.5h8.9c0-4.9-4-8.9-8.9-8.9c-4.9,0-8.8,4-8.8,8.9H473.4z
	"/>
<path fill-rule="evenodd" clip-rule="evenodd" fill="#FFFFFF" d="M408.7,481.5h8.9c0-4.9-4-8.9-8.9-8.9c-4.9,0-8.8,4-8.8,8.9H408.7z
	"/>
<path fill-rule="evenodd" clip-rule="evenodd" fill="#FFFFFF" d="M491.1,481.5h8.9c0-4.9-4-8.9-8.9-8.9c-4.9,0-8.8,4-8.8,8.9H491.1z
	"/>
<path fill-rule="evenodd" clip-rule="evenodd" fill="#FFFFFF" d="M458.4,527.6h8.9c0-4.9-4-8.9-8.9-8.9c-4.9,0-8.8,4-8.8,8.9H458.4z
	"/>
<path fill-rule="evenodd" clip-rule="evenodd" fill="#FFFFFF" d="M476.1,527.6h-8.9c0-4.9,4-8.9,8.9-8.9c4.9,0,8.8,4,8.8,8.9H476.1z
	"/>
<path fill-rule="evenodd" clip-rule="evenodd" fill="#FFFFFF" d="M506.1,527.6h-8.9c0-4.9,4-8.9,8.9-8.9c4.9,0,8.8,4,8.8,8.9H506.1z
	"/>
<path fill-rule="evenodd" clip-rule="evenodd" fill="#FFFFFF" d="M523.8,527.6h8.8c0-4.9-4-8.9-8.8-8.9c-4.9,0-8.8,4-8.8,8.9H523.8z
	"/>
<polygon fill-rule="evenodd" clip-rule="evenodd" fill="#8E6340" points="277.2,392.5 310.2,458.5 244.2,458.5 "/>
<polygon fill-rule="evenodd" clip-rule="evenodd" fill="#776B5F" points="277.2,392.5 310.2,458.5 277.2,458.5 "/>
<polygon fill-rule="evenodd" clip-rule="evenodd" fill="#8E6340" points="245.2,438.1 263.7,458.5 214.8,458.5 231.8,439.8 "/>
<polygon fill-rule="evenodd" clip-rule="evenodd" fill="#5C483A" points="245.2,438.1 263.7,458.5 239.2,458.5 239.2,438.8 "/>
<polygon fill-rule="evenodd" clip-rule="evenodd" fill="#B37E57" points="867.8,399.4 897.3,458.5 744.1,458.5 762.5,421.6 
	808.2,402 820.7,386.8 "/>
<polygon fill-rule="evenodd" clip-rule="evenodd" fill="#8E6340" points="867.8,399.4 897.3,458.5 820.7,458.5 820.7,386.8 "/>
<polygon fill-rule="evenodd" clip-rule="evenodd" fill="#8E6340" points="730.2,423.9 747.5,458.5 712.9,458.5 "/>
<polygon fill-rule="evenodd" clip-rule="evenodd" fill="#776B5F" points="730.2,423.9 747.5,458.5 730.2,458.5 "/>
<path fill-rule="evenodd" clip-rule="evenodd" fill="#FFFFFF" d="M816.3,481.5h8.9c0-4.9-4-8.9-8.9-8.9c-4.9,0-8.8,4-8.8,8.9H816.3z
	"/>
<path fill-rule="evenodd" clip-rule="evenodd" fill="#FFFFFF" d="M750.5,481.5h-8.9c0-4.9,4-8.9,8.9-8.9c4.9,0,8.8,4,8.8,8.9H750.5z
	"/>
<path fill-rule="evenodd" clip-rule="evenodd" fill="#FFFFFF" d="M778.5,458.5h8.8c0-4.9-4-8.9-8.8-8.9c-4.9,0-8.8,4-8.8,8.9H778.5z
	"/>
<path fill-rule="evenodd" clip-rule="evenodd" fill="#FFFFFF" d="M796.2,458.5h-8.9c0-4.9,4-8.9,8.9-8.9c4.9,0,8.8,4,8.8,8.9H796.2z
	"/>
<path fill-rule="evenodd" clip-rule="evenodd" fill="#FFFFFF" d="M712.9,458.5h8.9c0-4.9-4-8.9-8.9-8.9c-4.9,0-8.8,4-8.8,8.9H712.9z
	"/>
<path fill-rule="evenodd" clip-rule="evenodd" fill="#FFFFFF" d="M837.8,458.5h8.9c0-4.9-4-8.9-8.9-8.9c-4.9,0-8.8,4-8.8,8.9H837.8z
	"/>
<path fill-rule="evenodd" clip-rule="evenodd" fill="#FFFFFF" d="M884.7,458.5h8.9c0-4.9-4-8.9-8.9-8.9c-4.9,0-8.8,4-8.8,8.9H884.7z
	"/>
<path fill-rule="evenodd" clip-rule="evenodd" fill="#FFFFFF" d="M902.4,458.5h-8.8c0-4.9,4-8.9,8.8-8.9c4.9,0,8.8,4,8.8,8.9H902.4z
	"/>
<path fill-rule="evenodd" clip-rule="evenodd" fill="#FFFFFF" d="M257.1,458.5h8.9c0-4.9-4-8.9-8.9-8.9c-4.9,0-8.8,4-8.8,8.9H257.1z
	"/>
<path fill-rule="evenodd" clip-rule="evenodd" fill="#FFFFFF" d="M274.8,458.5H266c0-4.9,4-8.9,8.9-8.9c4.9,0,8.8,4,8.8,8.9H274.8z"
	/>
<path fill-rule="evenodd" clip-rule="evenodd" fill="#FFFFFF" d="M292.5,458.5h8.9c0-4.9-4-8.9-8.9-8.9c-4.9,0-8.8,4-8.8,8.9H292.5z
	"/>
<path fill-rule="evenodd" clip-rule="evenodd" fill="#FFFFFF" d="M310.2,458.5h-8.9c0-4.9,4-8.9,8.9-8.9c4.9,0,8.8,4,8.8,8.9H310.2z
	"/>
<path fill-rule="evenodd" clip-rule="evenodd" fill="#FFFFFF" d="M214.8,458.5h8.9c0-4.9-4-8.9-8.9-8.9c-4.9,0-8.8,4-8.8,8.9H214.8z
	"/>
</svg>
