<!-- Generated by IcoMoon.io -->
<svg version="1.1" xmlns="http://www.w3.org/2000/svg" viewBox="0 0 512 512">
<path fill="#fff" d="M401.079 440.212c8.127 0 16.856-3.311 22.876-9.331 12.642-12.642 12.642-33.712 0-46.354l-65.918-65.918c18.361-25.885 29.498-56.889 29.498-90.901 0-86.085-70.132-155.917-155.917-155.917s-156.218 69.832-156.218 155.616 70.132 155.917 155.917 155.917c28.595 0 55.383-7.826 78.26-21.371l68.025 68.025c6.622 6.923 15.050 10.234 23.478 10.234zM231.317 318.308c-49.965 0-90.901-40.936-90.901-90.901s40.936-90.901 90.901-90.901 90.901 40.936 90.901 90.901-40.936 90.901-90.901 90.901z"></path>
</svg>
