<!-- Generator: Adobe Illustrator 17.0.0, SVG Export Plug-In  -->
<svg version="1.1"
	 xmlns="http://www.w3.org/2000/svg" xmlns:xlink="http://www.w3.org/1999/xlink" xmlns:a="http://ns.adobe.com/AdobeSVGViewerExtensions/3.0/"
	 x="0px" y="0px" width="357.168px" height="357.17px" viewBox="0 0 357.168 357.17" enable-background="new 0 0 357.168 357.17"
	 xml:space="preserve">
<defs>
</defs>
<g transform="translate(0,-952.36218)">
	<path d="M178.584,952.362C79.955,952.362,0,1032.318,0,1130.947c0,98.629,79.955,178.585,178.584,178.585
		s178.584-79.956,178.584-178.585C357.168,1032.318,277.213,952.363,178.584,952.362L178.584,952.362z M107.15,1041.654
		c16.438,0,29.764,13.326,29.764,29.765c0,16.438-13.326,29.764-29.764,29.764c-16.439,0-29.764-13.326-29.764-29.764
		C77.386,1054.98,90.711,1041.654,107.15,1041.654z M250.018,1041.654c16.439,0,29.764,13.326,29.764,29.765
		c0,16.438-13.324,29.764-29.764,29.764c-16.439,0-29.764-13.326-29.764-29.764C220.254,1054.98,233.578,1041.654,250.018,1041.654z
		 M94.686,1172.429c4.043-0.173,7.896,1.72,10.232,5.024c16.125,22.11,42.945,36.833,73.666,36.833s57.541-14.723,73.666-36.833
		c3.83-5.358,11.279-6.598,16.637-2.768c5.359,3.83,6.6,11.279,2.768,16.638c-0.018,0.027-0.039,0.055-0.059,0.081
		c-20.596,28.243-54.705,46.693-93.012,46.693s-72.416-18.45-93.013-46.693c-3.908-5.288-2.79-12.743,2.499-16.651
		C89.993,1173.332,92.298,1172.522,94.686,1172.429z"/>
</g>
</svg>
