<svg xmlns="http://www.w3.org/2000/svg" width="48" height="48" viewBox="0 0 48 48"><title>social-gg</title><rect x="-0.00296" y="-0.00302" width="47.99994" height="48" fill="#dd4b39"/><path d="M33.30376,23.90742a12.472,12.472,0,0,1-.1535,2.02458c-.78681,5.17183-4.64411,8.14632-9.63363,8.14632a10.16132,10.16132,0,0,1,0-20.32265A9.5941,9.5941,0,0,1,30.33887,16.404l-2.917,2.91692a5.35356,5.35356,0,0,0-3.90526-1.52561,6.103,6.103,0,0,0-5.9874,6.11214,6.03838,6.03838,0,0,0,5.9874,6.045c2.76342,0,4.86478-1.34335,5.46928-4.0204H23.51663V21.854H33.131A11.85759,11.85759,0,0,1,33.30376,23.90742Z" fill="#fff"/></svg>