<svg id="Layer_1" data-name="Layer 1" xmlns="http://www.w3.org/2000/svg" width="48" height="48" viewBox="0 0 48 48"><defs><style>.cls-1{fill:#dd4b39;}.cls-2{fill:#fff;}</style></defs><title>social-gg</title><rect class="cls-1" width="48" height="48"/><polygon class="cls-2" points="40.02 22.14 40.02 24.66 36.46 24.66 36.46 28.23 33.94 28.23 33.94 24.66 30.37 24.66 30.37 22.14 33.94 22.14 33.94 18.58 36.46 18.58 36.46 22.14 40.02 22.14"/><path class="cls-2" d="M28,23.91a12.47,12.47,0,0,1-.15,2c-.79,5.17-4.64,8.15-9.63,8.15a10.16,10.16,0,0,1,0-20.32A9.59,9.59,0,0,1,25,16.4l-2.92,2.92a5.35,5.35,0,0,0-3.91-1.53,6.1,6.1,0,0,0-6,6.11,6,6,0,0,0,6,6c2.76,0,4.86-1.34,5.47-4H18.18V21.85H27.8A11.86,11.86,0,0,1,28,23.91Z"/></svg>