<svg id="Layer_1" data-name="Layer 1" xmlns="http://www.w3.org/2000/svg" width="48" height="48" viewBox="0 0 48 48"><defs><style>.cls-1{fill:#3460ad;}.cls-2{fill:#fff;}</style></defs><title>social-fb</title><rect class="cls-1" width="48" height="48"/><path class="cls-2" d="M25,15.12a2,2,0,0,0,0,.27v3.34a.39.39,0,0,0,.39.39H29a.39.39,0,0,1,.39.43l-.27,3a.39.39,0,0,1-.39.36H25.39a.39.39,0,0,0-.39.39V37.2a.39.39,0,0,1-.39.39h-4a.39.39,0,0,1-.39-.39V23.35A.39.39,0,0,0,19.8,23h-2.1a.39.39,0,0,1-.39-.39V19.45a.39.39,0,0,1,.39-.39h2.09a.39.39,0,0,0,.39-.39V15.1a5.1,5.1,0,0,1,4.68-5.49,4.4,4.4,0,0,1,.81,0h3.46a.39.39,0,0,1,.39.39V13a.39.39,0,0,1-.39.39H26.9A1.84,1.84,0,0,0,25,15.12Z"/></svg>