<svg id="Layer_21" data-name="Layer 21" xmlns="http://www.w3.org/2000/svg" width="48" height="48" viewBox="0 0 48 48"><defs><style>.cls-1{fill:#e88623;}.cls-2{fill:#fff;}</style></defs><title>social-ok</title><rect class="cls-1" width="48" height="48"/><path class="cls-2" d="M24,9.8a7.15,7.15,0,1,0,7.14,7.14A7.14,7.14,0,0,0,24,9.8Zm0,10a2.85,2.85,0,1,1,2.86-2.86A2.86,2.86,0,0,1,24,19.8Z"/><path class="cls-2" d="M31.1,34.39a2,2,0,0,1-2.83,2.82L24,32.91l-4.3,4.3a2,2,0,1,1-2.83-2.82l4.52-4.52a13.44,13.44,0,0,1-4.29-1.62,2,2,0,0,1,2.06-3.43A9.6,9.6,0,0,0,29,24.73a0,0,0,0,0,0,0,2,2,0,1,1,2.11,3.4,13.31,13.31,0,0,1-4.5,1.75Z"/></svg>