<svg id="Layer_1" data-name="Layer 1" xmlns="http://www.w3.org/2000/svg" width="48" height="48" viewBox="0 0 48 48"><defs><style>.cls-1{fill:#5086bc;}.cls-2{fill:#fff;}</style></defs><title>social-vk</title><rect class="cls-1" width="48" height="48"/><path class="cls-2" d="M39.43,32c-.21.38-.44.73-.68,1.07a2.66,2.66,0,0,1-.76.18H33.71a3,3,0,0,1-2.12-.65C30,31.47,28.45,28.62,27.31,29s-1.16,2.94-1.16,2.94a1.31,1.31,0,0,1-.26.85,1.64,1.64,0,0,1-.87.37h-1.9v0a11,11,0,0,1-8-3.62c-4.06-4.21-7.63-12.59-7.63-12.59s-.25-.49,0-.81.94-.33.94-.33h4.58a2,2,0,0,1,.74.31,1.43,1.43,0,0,1,.39.54,29.59,29.59,0,0,0,1.72,3.56c1.91,3.3,2.81,4,3.46,3.67.94-.52.66-4.66.66-4.66A4.82,4.82,0,0,0,19.55,17a2.19,2.19,0,0,0-1.43-.71c-.25,0,.18-.62.73-.89a10.42,10.42,0,0,1,4-.42,8.35,8.35,0,0,1,2.28.2c1.58.42,1,1.9,1,5.42,0,1.13-.21,2.72.62,3.26.33.22,1.19,0,3.34-3.62a26,26,0,0,0,1.77-3.74,1.34,1.34,0,0,1,.42-.52,1.14,1.14,0,0,1,.63-.11h4.82s1.44-.2,1.65.49-.54,2.29-2.51,4.9c-3.21,4.31-3.61,3.9-.9,6.39a14.52,14.52,0,0,1,3.19,3.69A2,2,0,0,1,39.43,32Z"/></svg>