<svg xmlns="http://www.w3.org/2000/svg" width="48" height="48" viewBox="0 0 48 48"><title>settings-black</title><path d="M37.37356,25.764a12.411,12.411,0,0,0,0-3.528l3.798-2.97a.90811.90811,0,0,0,.216-1.152l-3.6-6.228a.90473.90473,0,0,0-1.098-.396l-4.482,1.8a13.151,13.151,0,0,0-3.042-1.764l-.684-4.77a.87772.87772,0,0,0-.882-.756h-7.2a.87772.87772,0,0,0-.882.756l-.684,4.77a13.82917,13.82917,0,0,0-3.042,1.764l-4.482-1.8a.878.878,0,0,0-1.098.396l-3.6,6.228a.88742.88742,0,0,0,.216,1.152l3.798,2.97a14.275,14.275,0,0,0-.126,1.764,14.275,14.275,0,0,0,.126,1.764l-3.798,2.97a.90811.90811,0,0,0-.216,1.152l3.6,6.228a.90473.90473,0,0,0,1.098.396l4.482-1.8a13.151,13.151,0,0,0,3.042,1.764l.684,4.77a.87772.87772,0,0,0,.882.756h7.2a.87772.87772,0,0,0,.882-.756l.684-4.77a13.82922,13.82922,0,0,0,3.042-1.764l4.482,1.8a.878.878,0,0,0,1.098-.396l3.6-6.228a.90811.90811,0,0,0-.216-1.152ZM23.99956,30.3a6.3,6.3,0,1,1,6.3-6.3A6.30692,6.30692,0,0,1,23.99956,30.3Z"/></svg>