<svg xmlns="http://www.w3.org/2000/svg" width="48" height="48" viewBox="0 0 48 48"><title>settings-white</title><path d="M37.37,25.76a11.97853,11.97853,0,0,0,0-3.52l3.8-2.97a.92878.92878,0,0,0,.22-1.16l-3.6-6.22a.90912.90912,0,0,0-1.1-.4l-4.48,1.8A13.37532,13.37532,0,0,0,29.17,11.53l-.69-4.77A.86952.86952,0,0,0,27.6,6H20.4a.86952.86952,0,0,0-.88.76l-.69,4.77A14.16355,14.16355,0,0,0,15.79,13.29l-4.48-1.8a.88322.88322,0,0,0-1.1.4l-3.6,6.22a.90481.90481,0,0,0,.22,1.16l3.8,2.97a11.97853,11.97853,0,0,0,0,3.52l-3.8,2.97a.92878.92878,0,0,0-.22,1.16l3.6,6.22a.90912.90912,0,0,0,1.1.4l4.48-1.8A13.37532,13.37532,0,0,0,18.83,36.47l.69,4.77a.86952.86952,0,0,0,.88.76h7.2a.86952.86952,0,0,0,.88-.76l.69-4.77A14.16355,14.16355,0,0,0,32.21,34.71l4.48,1.8a.88322.88322,0,0,0,1.1-.4l3.6-6.22a.92878.92878,0,0,0-.22-1.16ZM24,30.3A6.3,6.3,0,1,1,30.3,24,6.31208,6.31208,0,0,1,24,30.3Z" fill="#fff"/></svg>