<!-- Generator: Adobe Illustrator 17.0.0, SVG Export Plug-In  -->
<svg version="1.1"
	 xmlns="http://www.w3.org/2000/svg" xmlns:xlink="http://www.w3.org/1999/xlink" xmlns:a="http://ns.adobe.com/AdobeSVGViewerExtensions/3.0/"
	 x="0px" y="0px" width="131.931px" height="135.105px" viewBox="0 0 131.931 135.105" enable-background="new 0 0 131.931 135.105"
	 xml:space="preserve">
<defs>
</defs>
<g>
	<defs>
		<rect id="SVGID_1_" x="0" y="0.001" width="131.931" height="135.105"/>
	</defs>
	<clipPath id="SVGID_2_">
		<use xlink:href="#SVGID_1_"  overflow="visible"/>
	</clipPath>
	<path clip-path="url(#SVGID_2_)" d="M116.586,10.583h-6.35c0.177-0.529,0.177-1.235,0.177-1.764c0-4.762-3.881-8.819-8.643-8.819
		H29.984c-4.762,0-8.642,3.88-8.642,8.643c0,0.705,0,1.234,0.176,1.763h-6.349C6.879,10.406,0,17.109,0,25.575v94.362
		c0,8.29,6.702,15.168,15.169,15.168h101.593c8.29,0,15.169-6.702,15.169-15.168V25.751
		C131.754,17.462,125.052,10.583,116.586,10.583 M59.792,86.778l-22.223,28.926c-1.059,1.587-2.822,2.469-4.763,2.469
		c-1.94,0-3.704-0.882-4.938-2.469l-10.759-14.463c-1.94-2.646-1.411-6.526,1.234-8.466c2.646-1.94,6.526-1.411,8.467,1.234
		l5.82,7.937L50.091,79.37c2.117-2.646,5.821-3.175,8.643-1.235C61.38,80.252,61.909,83.956,59.792,86.778 M59.792,39.509
		L37.569,68.435c-1.235,1.587-2.999,2.469-4.939,2.469s-3.704-0.882-4.939-2.469L16.932,53.972c-1.94-2.646-1.411-6.526,1.235-8.466
		c2.646-1.941,6.526-1.411,8.466,1.234l6.173,7.937l17.285-22.576c2.117-2.646,5.821-3.175,8.643-1.235
		C61.38,32.983,61.909,36.863,59.792,39.509 M110.589,105.298H76.372c-3.351,0-6.174-2.822-6.174-6.174
		c0-3.351,2.823-6.173,6.174-6.173h34.393c3.352,0,6.174,2.822,6.174,6.173C116.762,102.476,114.117,105.298,110.589,105.298
		 M110.589,56.441H76.372c-3.351,0-6.174-2.822-6.174-6.173s2.823-6.173,6.174-6.173h34.393c3.352,0,6.174,2.822,6.174,6.173
		C116.762,53.619,114.117,56.441,110.589,56.441"/>
</g>
</svg>
