<!-- Generated by IcoMoon.io -->
<svg version="1.1" xmlns="http://www.w3.org/2000/svg" width="512" height="512" viewBox="0 0 512 512">
<title></title>
<g id="icomoon-ignore">
</g>
<path fill="#000" d="M256 496c132.256 0 240-107.745 240-240s-107.745-239.999-240-239.999-240 107.745-240 239.999c0 132.256 107.745 240 240 240zM255.49 123.745c50.043 0 90.382 40.34 90.382 90.382 0 50.043-40.34 90.383-90.382 90.383-50.043 0-90.383-40.34-90.383-90.383 0-49.532 40.851-90.382 90.383-90.382zM112.001 421.447c2.043-5.617 5.106-11.745 9.192-16.851 33.703-44.937 82.723-73.021 136.341-73.021 53.616 0 102.637 28.084 136.341 73.021 3.575 4.595 6.127 9.192 8.17 14.298-38.298 35.233-89.872 56.681-146.042 56.681-55.149 0-105.192-20.426-144-54.127z"></path>
</svg>
