<?xml version="1.0" standalone="no"?>
<!DOCTYPE svg PUBLIC "-//W3C//DTD SVG 20010904//EN"
 "http://www.w3.org/TR/2001/REC-SVG-20010904/DTD/svg10.dtd">
<svg version="1.0" xmlns="http://www.w3.org/2000/svg"
 width="582.000000pt" height="582.000000pt" viewBox="0 0 582.000000 582.000000"
 preserveAspectRatio="xMidYMid meet">
<metadata>
Created by potrace 1.11, written by Peter Selinger 2001-2013
</metadata>
<g transform="translate(0.000000,582.000000) scale(0.100000,-0.100000)"
fill="#000000" stroke="none">
<path d="M2737 5814 c-1 -1 -33 -4 -72 -7 -38 -4 -122 -15 -185 -27 -160 -27
-168 -29 -230 -46 -30 -8 -64 -17 -75 -20 -11 -3 -24 -6 -30 -8 -189 -50 -447
-164 -644 -283 -57 -35 -107 -63 -112 -63 -5 0 -9 -3 -9 -7 0 -5 -25 -24 -55
-43 -30 -19 -55 -38 -55 -42 0 -5 -4 -8 -10 -8 -5 0 -20 -9 -32 -19 -27 -23
-52 -44 -110 -91 -58 -48 -264 -254 -313 -314 -22 -27 -46 -55 -52 -62 -7 -7
-13 -17 -13 -23 0 -6 -4 -11 -8 -11 -9 0 -106 -134 -131 -179 -8 -14 -17 -28
-21 -31 -10 -7 -80 -130 -80 -140 0 -4 -4 -10 -8 -12 -7 -3 -58 -103 -120
-238 -30 -63 -69 -169 -102 -275 -24 -79 -38 -132 -66 -250 -4 -16 -8 -34 -10
-40 -12 -48 -33 -208 -29 -216 4 -5 3 -9 -2 -9 -10 0 -11 -9 -18 -255 l-6
-200 1435 0 1436 -1 0 1463 0 1464 -136 -3 c-74 -1 -136 -3 -137 -4z"/>
<path d="M3240 5425 c-1 -505 -1 -1340 0 -2007 l0 -523 1219 0 1220 0 -4 210
c-2 115 -7 224 -9 240 -3 17 -8 48 -11 70 -10 83 -46 274 -58 305 -3 8 -11 38
-17 65 -30 124 -101 314 -171 462 -21 45 -39 86 -39 92 0 5 -3 11 -7 13 -5 2
-21 28 -37 58 -54 102 -199 316 -261 387 -5 6 -28 33 -50 60 -67 81 -285 295
-375 366 -47 37 -90 71 -96 76 -5 4 -55 38 -110 75 -54 37 -99 71 -99 76 0 16
142 109 242 159 136 68 153 75 283 117 63 20 122 39 130 42 8 3 22 7 30 9 8 2
51 12 95 22 l80 19 -977 1 -978 1 0 -395z m1220 -690 c79 -21 248 -130 249
-161 1 -7 7 -14 14 -17 21 -8 84 -139 98 -202 54 -258 -79 -495 -336 -596 -64
-25 -192 -32 -271 -13 -95 22 -177 67 -245 136 -61 60 -122 159 -135 218 -36
161 -20 274 61 420 20 36 99 115 148 148 62 41 113 60 217 80 34 7 154 -1 200
-13z"/>
<path d="M4165 4416 c-128 -131 -150 -157 -148 -182 10 -177 186 -313 360
-276 104 22 166 65 215 152 31 55 42 98 40 168 -3 141 -133 279 -271 288 l-46
3 -150 -153z"/>
<path d="M3245 2680 c-2 -3 -4 -68 -4 -145 -1 -77 -1 -147 -1 -155 0 -8 0 -62
0 -120 0 -58 0 -112 0 -120 0 -8 0 -62 0 -120 0 -58 0 -112 0 -120 0 -8 0 -62
0 -120 0 -58 0 -112 0 -120 0 -8 0 -62 0 -120 0 -58 0 -112 -1 -120 0 -8 0
-224 0 -480 0 -256 1 -472 1 -480 -1 -8 0 -62 0 -120 0 -325 -1 -320 28 -315
9 2 17 4 17 5 0 1 14 3 30 5 17 2 44 6 60 9 17 3 44 8 60 10 101 16 359 95
500 153 92 38 319 154 327 167 4 6 8 8 8 4 0 -8 267 168 285 187 6 6 33 28 60
50 83 64 274 248 363 349 55 62 174 220 234 311 58 88 168 286 168 303 0 6 5
12 10 12 6 0 10 5 10 11 0 5 12 36 26 67 33 72 63 141 64 147 0 3 3 10 5 17
50 141 77 229 100 318 4 19 19 87 20 95 2 12 16 82 22 110 3 11 6 31 8 45 2
14 4 25 5 25 1 0 3 14 4 30 2 17 6 64 11 105 4 41 8 86 9 100 l1 25 -1213 0
c-668 0 -1215 -2 -1217 -5z"/>
</g>
</svg>
